<svg xmlns="http://www.w3.org/2000/svg" viewBox="0 0 116.48 75.92"><g id="Layer_2" data-name="Layer 2"><g id="Layer_1-2" data-name="Layer 1"><path d="M0,75.92V0H116.48V75.92Zm4-4H112.45V4H4Z"/><path d="M80.56,61.46a24.46,24.46,0,0,0,8.59.61,5.26,5.26,0,0,0,4.13-3.45,52.26,52.26,0,0,1,2.81-6.07,16.86,16.86,0,0,1,3.64-4.37,5,5,0,0,1,7.58,1,14.44,14.44,0,0,1,2.12,4c1.3,3.84,2.42,7.75.9,11.81a19.92,19.92,0,0,1-1.71,3.54c-1.08,1.73-2.08,2-4.08,1.6a22.77,22.77,0,0,1-8.76-4.25l-.71-.52a7,7,0,0,0-.4.62c-1.94,3.89-5.1,5.39-9.35,5A33.33,33.33,0,0,1,74,68.14a1.81,1.81,0,0,0-1.3.12,36.5,36.5,0,0,1-10.14,2.66c-5.88.65-9.62-2.06-10.5-7.9a107.12,107.12,0,0,1-.94-10.73c-.48-9.79-.85-19.58-1.3-29.36-.1-2.15-.4-4.3-.52-6.45a5.46,5.46,0,0,1,.23-2.36C50.6,11.5,51.78,8.93,53,6.36c.15-.33.62-.51,1-.75a3.6,3.6,0,0,1,.52,1.11c.24,3.51.52,7,.63,10.53.37,11.91.69,23.82,1,35.73a15.65,15.65,0,0,0,1.42,6.86c.73,1.43,1.74,2.42,3.41,2.36,1.89-.08,3.77-.3,5.86-.47-2.36-3.68-1.86-7.14-.33-10.57A16.63,16.63,0,0,1,72.13,44c3.86-2.68,7.39-1.84,9.5,2.38a14.18,14.18,0,0,1-.48,14.09C81,60.75,80.83,61,80.56,61.46ZM74.43,51c-2,0-5,2.49-4.94,4.2s3,4.56,4.5,4.51,4.63-2.94,4.63-4.15C78.62,53.47,76.33,51,74.43,51Zm31.3,11.2a8.09,8.09,0,0,0-1.64-6c-2-2.45-4.54-2.07-5.81.77-.28.62-.25,1.07.32,1.43,1.88,1.18,3.75,2.36,5.66,3.5A5.77,5.77,0,0,0,105.73,62.18Z"/><path d="M23.71,61.38a30.69,30.69,0,0,1-3,3.55,3.84,3.84,0,0,1-2.57.93c-2.69-.23-5.37-.68-8-1.16a7,7,0,0,1-2.28-1,4.61,4.61,0,0,1-2.23-5.92c1.45-4.23,3.69-7.86,7.9-9.94,2.57-1.27,5.09-2.66,7.65-4a1.06,1.06,0,0,0,.71-1.29c-.47-3.16,1.86-4.81,3.74-6.65.52-.51.92-.15,1,.56q.81,7.68,1.67,15.36c.2,1.74.44,3.48.72,5.21.55,3.32,2.15,4.8,5.5,5.1,2.69.23,5.32,0,7.34-2a2.91,2.91,0,0,0,.76-1.88c-.18-4.79-.47-9.58-.71-14.36-.3-6-.56-12.06-.9-18.09a19.37,19.37,0,0,0-.63-4.07,16.21,16.21,0,0,1,.26-9.89c.71-2,1.69-3.87,2.57-5.8a4.39,4.39,0,0,1,.59-.79l.32.06c.11.85.21,1.69.33,2.53a16.15,16.15,0,0,0,3,7.37c2.7,3.69,1.84,7.34.12,10.94a7.14,7.14,0,0,0-.71,3.63c.38,8.63.75,17.25,1.06,25.88A26,26,0,0,1,46.17,65c-1.13,3.3-3.78,4.61-6.76,5.45a16.76,16.76,0,0,1-8.78,0c-3.1-.79-4.9-3-6-5.89C24.28,63.48,24,62.35,23.71,61.38Zm-1.24-13.2c-3.18,3-7.63,3.82-10.77,7.17a24.62,24.62,0,0,0,3.53,1.54c2.3.58,4.64.87,6.9-.25A1.32,1.32,0,0,0,23,55.16C22.79,52.9,22.65,50.63,22.47,48.18Z"/><path d="M76.26,36.87a5.16,5.16,0,1,1-5.09-5.25A5.17,5.17,0,0,1,76.26,36.87Z"/><path d="M86.82,36.81a5.16,5.16,0,1,1-5.15-5.19A5.17,5.17,0,0,1,86.82,36.81Z"/></g></g></svg>