<svg xmlns="http://www.w3.org/2000/svg" viewBox="0 0 218.76 75.78"><g id="Layer_2" data-name="Layer 2"><g id="Layer_1-2" data-name="Layer 1"><path d="M218.76,75.78H0V0H218.76ZM4,71.73H214.75V4H4Z"/><path d="M68.71,57.15c-3.13,3.36-7.11,4.2-11.4,4a2.84,2.84,0,0,1-2.76-2.56c-3.16,3-7,3.49-11.06,3.26A6.24,6.24,0,0,1,39,59.19c-.6,1-1.1,2-1.7,2.94a3.21,3.21,0,0,1-3.87,1.33,19.69,19.69,0,0,1-7.51-4.32c-.31-.25-.6-.52-1-.88a8.19,8.19,0,0,1-5.66,4.15c-5.71,1.26-10-1.3-11.31-7a51.41,51.41,0,0,1-.92-8c-.34-5.57-.48-11.16-.84-16.74S5.26,19.72,4.87,14.27a5.13,5.13,0,0,1,.4-2.55C6.36,9.56,7.61,7.47,8.86,5.39,9.09,5,9.63,4.8,10,4.52A5,5,0,0,1,10.66,6c.28,3.3.57,6.6.7,9.91.39,9.77.69,19.54,1.05,29.31.05,1.55.17,3.11.37,4.65.28,2.12,1.44,3.1,3.59,3.29,2.78.26,4.83-.72,6-3.32A38.49,38.49,0,0,1,24.15,46a28.67,28.67,0,0,1,3.32-4.92c2.07-2.26,5.64-2.84,7.8.87,1.58,2.72,3.14,5.46,4.63,8.23A5,5,0,0,0,45,53.14a27.35,27.35,0,0,0,5-.62c3.6-.9,5.6-3.45,6.69-6.87.52-1.64,1.29-2,3-1.53.72.18,1,.55.85,1.28-.4,1.5-.81,3-1.24,4.49-.55,2-.05,2.63,2,2.49,3.25-.22,5.72-1.64,6.88-4.85.4-1.08.72-2.19,1.06-3.29s1.22-1.42,2.73-1.16c1.13.2,1,1,.83,1.74a30.1,30.1,0,0,1-.63,3.41,2.16,2.16,0,0,0,.55,2.18A8,8,0,0,0,77,53.08c1.5.31,2.37-.25,2.29-1.75a13.85,13.85,0,0,0-1-4.35,3.32,3.32,0,0,1,.17-3.28,28.64,28.64,0,0,1,2-3c.51-.64,1.1-.65,1.4.26,1.86,5.64,2.14,11.26-.32,16.81A10.14,10.14,0,0,1,80.2,60a3.49,3.49,0,0,1-3.83,1.27C73.64,60.66,71.67,59.65,68.71,57.15ZM34.87,55.06a3.14,3.14,0,0,0,.05-.77,16.38,16.38,0,0,0-2.74-6.44c-1.38-1.77-2.84-1.77-4.17,0a4.67,4.67,0,0,0-.74,1.48,1.46,1.46,0,0,0,.18,1.16A15.24,15.24,0,0,0,33.88,55,4.08,4.08,0,0,0,34.87,55.06Z"/><path d="M199.33,41.53c-.91,2-.91,2-2.79.89-.62-.37-1.19-.82-1.83-1.14-2.59-1.31-3.35-3.61-3.05-6.21A67.54,67.54,0,0,1,193.11,28a4.67,4.67,0,0,1,2.32-2.9,81,81,0,0,1,13.87-6.71L214,16.5v7.62L197.8,30.84c1.95,1.44,3.72,2.72,5.46,4.05a30.15,30.15,0,0,1,7.59,7.73c1.73,2.75,3.11,5.64,2.47,9-.78,4-2.45,7.29-6.92,8.53a49.6,49.6,0,0,1-18.73,1.5,7.35,7.35,0,0,1-6.14-4.57l-.59-1.32c-.45.61-.85,1.09-1.18,1.61A9.48,9.48,0,0,1,172,61.86a16.88,16.88,0,0,1-4.87-.33c-4.2-1-6-4.21-6.72-8.14a66.91,66.91,0,0,1-.71-7.36c-.53-8.76-1-17.53-1.51-26.29-.1-1.67-.43-3.33-.48-5a6.87,6.87,0,0,1,.44-3.11,63.78,63.78,0,0,1,3.45-5.86c.23-.38.8-.54,1.21-.8a4,4,0,0,1,.61,1.32q.66,12.12,1.23,24.26c.28,5.82.46,11.64.76,17.46.2,4,3.24,5.94,7.51,5a6.49,6.49,0,0,0,5-4c.68-1.74,1.31-3.5,1.83-5.29.47-1.62.65-1.85,2.36-1.92,2.93-.13,2.93-.13,2.46,2.75-.19,1.22-.37,2.45-.56,3.66a3.31,3.31,0,0,0,2,3.9,9.63,9.63,0,0,0,3.2.89c5.15.26,10.31.32,15.36-.93a19.61,19.61,0,0,0,3.57-1.6c.77-.37.75-.94.3-1.57a13.6,13.6,0,0,0-.86-1.14C205.2,45.23,202.24,43.43,199.33,41.53Z"/><path d="M141.74,60.12c-1.26,1-2.31,2.37-4,2.4a16.9,16.9,0,0,1-4.6-.49c-2.61-.71-5.15-1.66-7.69-2.58a1.81,1.81,0,0,0-1.65,0,28.7,28.7,0,0,1-14.13,3.42c-4.37-.13-7.5-2.22-8.83-6.38a23.09,23.09,0,0,1-1-5.59c-.5-8.16-.82-16.34-1.31-24.5-.23-3.89-.73-7.77-1-11.67a4.18,4.18,0,0,1,.41-2.3c1.37-2.42,2.88-4.76,4.35-7.12,0-.08.2-.09.36-.16,1.07,1.1.85,2.56.91,3.83.48,9.61.85,19.21,1.27,28.82.17,4,.39,8,.59,11.94A4.87,4.87,0,0,0,109,54a20.31,20.31,0,0,0,7.91-.66c-2.94-6.14.52-10.17,4.61-14-.06,0-.11-.13-.17-.13-2.16-.24-2.38-.51-1.68-2.55.64-1.84,1.34-3.66,2.14-5.44s1.54-2.17,3.38-1.14a84,84,0,0,1,7.49,4.7,31.79,31.79,0,0,1,9.55,10.1c2.35,4.1,3.35,8.34,1.12,12.86a1.28,1.28,0,0,0-.07.35ZM129.78,46c-.37-.75-.79-1.77-1.34-2.71a2.19,2.19,0,0,0-2.48-1,6.64,6.64,0,0,0-5.12,4.17,1.72,1.72,0,0,0-.06,1.16c.72,1.7,2.25,2.49,3.85,3.16,1.09.45,1.82-.34,2.57-.84A5.43,5.43,0,0,0,129.78,46ZM132,53.27A22.63,22.63,0,0,0,135,54a15.34,15.34,0,0,0,3.77,0c1.35-.2,1.52-.7.93-1.9A10.33,10.33,0,0,0,138.43,50c-1.27-1.48-2.62-2.88-3.94-4.32l-.32.22A9.38,9.38,0,0,1,132,53.27Z"/><path d="M34,33.54c-.68,1-1.26,1.92-2,2.78a4.27,4.27,0,0,1-4.14,1.89c-2.51-.37-5.05-.66-7.52-1.22a8.56,8.56,0,0,1-3.13-1.67,4,4,0,0,1-1.53-4.58c1.3-4.36,3.43-8.15,7.66-10.37,2.64-1.39,5.28-2.8,8-4.15.62-.31.91-.64.8-1.36-.44-3.1,1.82-4.75,3.68-6.56.64-.63,1-.16,1.1.64.45,4.4.91,8.8,1.41,13.19.28,2.46.58,4.91,1,7.34.59,3.35,2.14,4.67,6,4.9A76.8,76.8,0,0,0,67,33c.92-.21,1.31-.52.92-1.43a52.6,52.6,0,0,0-2.8-6.15,4.35,4.35,0,0,1-.21-4.91A18.89,18.89,0,0,1,66.62,18c.8-.95,1.39-.9,2.11.11a25.4,25.4,0,0,1,4.34,10.88,18.11,18.11,0,0,1-.84,8.36,6,6,0,0,1-4.14,4.19,53.27,53.27,0,0,1-14.61,2.17,69.17,69.17,0,0,1-9.33-.19c-5.7-.53-8.59-3.21-9.9-8.75C34.16,34.34,34.06,34,34,33.54ZM22.21,27.45c2.6,2.18,7.48,2.9,10,1.53.41-.21,1-.68,1-1-.1-2.43-.32-4.86-.51-7.41C29.57,23.56,25.18,24.34,22.21,27.45Z"/><path d="M157.76,20.31c.15,2.67.29,5.28.44,8-2.22.1-4.32.25-6.43.29-10.47.19-20.93.41-31.4.5a32,32,0,0,1-11.29-1.84c-1.89-.69-3.51-1.84-4-4a5.85,5.85,0,0,1,0-2.94C107.92,12.1,113.56,6.8,122,4.73a9.07,9.07,0,0,1,4.44.44,3.43,3.43,0,0,1,2.38,4.37,18.08,18.08,0,0,1-1.9,4.21c-.61,1.06-1.45,1.09-2.22.16a4.7,4.7,0,0,0-5.21-1.47,16.34,16.34,0,0,0-7.34,4.11c-1.74,1.69-1.6,2.53.74,2.95a57.87,57.87,0,0,0,10,1.19c11,0,22.05-.23,33.08-.38Z"/><path d="M91.15,43.08a53.45,53.45,0,0,1-1.58,16.47c-.22.8-.42,1.63-1.56,1.66-1.41,0-1.81-.23-1.87-1.65-.14-3.5-.14-7-.37-10.52-.37-5.84-.9-11.68-1.3-17.53C84.2,27.74,84,24,83.88,20.17a3.27,3.27,0,0,1,.48-1.93c1.18-1.69,2.46-3.32,3.78-4.91.25-.29.82-.32,1.25-.47a4.45,4.45,0,0,1,.4,1.18Q90.5,28.56,91.15,43.08Z"/><path d="M141.74,60.12l1.49-2a7.88,7.88,0,0,0,1.7-5c2.55-.6,5.06-1.22,7.58-1.76,1.1-.23,1.38-.77,1-1.76A52.75,52.75,0,0,0,151,43.24a4.62,4.62,0,0,1-.09-4.94,21,21,0,0,1,1.85-2.78c1-1.19,2-1.18,2.63.2A38.06,38.06,0,0,1,158,42.33a19.38,19.38,0,0,1-.74,13.45A5.07,5.07,0,0,1,153.83,59q-6.32,1.57-12.63,3.13a8.07,8.07,0,0,1-1.23.09Z"/><path d="M80.29,9.23c-.73.45-1.71,1.08-2.71,1.65s-1.5.34-1.35-.76a3.28,3.28,0,0,1,.92-1.9,44.24,44.24,0,0,1,3.68-2.67,2.12,2.12,0,0,1,2.76,0c2.71,2.21,5.76,2.38,8.93,1.42a45.59,45.59,0,0,0,4.25-1.86A6.15,6.15,0,0,1,98,4.82a4,4,0,0,1,.19,1.33,2.41,2.41,0,0,1-.67,1.23c-3.76,3.43-8.12,5-13.19,3.85A20,20,0,0,1,80.29,9.23Z"/><path d="M58.91,12.29a5.15,5.15,0,1,1-5.1-5.2A5.08,5.08,0,0,1,58.91,12.29Z"/><path d="M177.37,24.1a5.15,5.15,0,1,1-5-5.27A5.11,5.11,0,0,1,177.37,24.1Z"/><path d="M187.92,24.09a5.15,5.15,0,1,1-5-5.26A5.1,5.1,0,0,1,187.92,24.09Z"/><path d="M158.17,60.27a5.15,5.15,0,1,1-5.25,5A5.09,5.09,0,0,1,158.17,60.27Z"/></g></g></svg>