<svg xmlns="http://www.w3.org/2000/svg" viewBox="0 0 301.76 75.93"><g id="Layer_2" data-name="Layer 2"><g id="Layer_1-2" data-name="Layer 1"><path d="M0,0H301.76V75.93H0ZM4,71.92H297.7V4.05H4Z"/><path d="M277,33.93c-.21.64-.3.89-.38,1.16-.24.79-.69,1-1.43.56-1.28-.82-2.55-1.64-3.84-2.45a4.25,4.25,0,0,1-1.91-3.42,19.65,19.65,0,0,1,1.74-10A4.34,4.34,0,0,1,273,17.82c4.43-2.27,8.91-4.44,13.4-6.59,1.43-.68,2.94-1.16,4.52-1.78V17l-15.49,6.46c2.41,1.83,4.67,3.46,6.85,5.2,3.55,2.82,6.54,6.11,8.13,10.47,1.51,4.16.32,7.86-2.1,11.26A5.89,5.89,0,0,1,286,52a27.08,27.08,0,0,1-9.85,2.31,96.27,96.27,0,0,1-10.05.08,7.68,7.68,0,0,1-7.23-5.37c-.06-.14-.14-.28-.21-.42l-.19-.1c-.38.52-.79,1-1.16,1.59-2.66,4-6.65,4.9-11,4.41-5.05-.56-7.55-3.72-8.26-8.95-.56-4.15-.65-8.36-1-12.54-.57-6.93-1.18-13.85-1.71-20.78a4,4,0,0,1,.4-2.28c1.08-1.72,2.32-3.34,3.56-4.95.25-.33.78-.43,1.18-.64a4.1,4.1,0,0,1,.58,1.24c.28,2.82.57,5.65.7,8.48.39,7.75.64,15.5,1.07,23.25a30.08,30.08,0,0,0,1.06,5.85c.47,1.8,2.11,2.73,4.59,2.7,3.26,0,6-1.13,7.27-4.42a45.43,45.43,0,0,0,1.77-5.32,1.87,1.87,0,0,1,2-1.65c3.09-.07,3.33-.41,2.75,2.82-.2,1.13-.34,2.28-.54,3.42-.34,2,.41,3.61,2.35,4.26a15.56,15.56,0,0,0,4.32.81,49.2,49.2,0,0,0,14.06-1.05,20,20,0,0,0,3.35-1.51c.91-.43.84-1.07.33-1.75a9.81,9.81,0,0,0-1.47-1.73C282.17,37.85,279.66,36,277,33.93Z"/><path d="M165.08,45.5c-3.17-6-.85-10.76,2.64-15.17A14,14,0,0,1,171.85,27c2.8-1.58,5.5-.86,7.33,1.79a13.29,13.29,0,0,1,2,11.08,48.15,48.15,0,0,1-2,5.39c.72.13,1.59.34,2.48.42a40.45,40.45,0,0,0,4.78.28,5.54,5.54,0,0,0,5.21-3.59,52.4,52.4,0,0,1,2.81-6.08,17,17,0,0,1,3.63-4.37c2.53-2.07,5.54-1.54,7.62,1l.08.1c3.29,5.6,5,11.39,2.13,17.73-.12.26-.26.5-.39.74-1.4,2.48-2.44,3-5.2,2.27a23.14,23.14,0,0,1-8.09-4l-.8-.6a5.82,5.82,0,0,0-.4.62c-1.93,3.89-5.1,5.39-9.35,5a33.16,33.16,0,0,1-11.32-2.8,1.81,1.81,0,0,0-1.3.12,36.41,36.41,0,0,1-10.14,2.66c-5.88.65-9.62-2.06-10.5-7.9-.54-3.5-.7-7.07-1-10.61-.6-7.61-1.13-15.22-1.75-22.82a5.32,5.32,0,0,1,.73-3.55c.77-1.17,1.51-2.36,2.36-3.46a7.67,7.67,0,0,1,1.52-1.22A7,7,0,0,1,153,6.84c.31,4.63.56,9.26.8,13.89.33,6.27.54,12.54,1,18.8a12.3,12.3,0,0,0,1.61,4.69,3.32,3.32,0,0,0,2.34,1.52A57.77,57.77,0,0,0,165.08,45.5Zm7.69-10.83c-2,0-5,2.52-4.91,4.23s3,4.56,4.53,4.47,4.62-3,4.6-4.16C177,37.1,174.68,34.66,172.77,34.67Zm31.37,11.26a8.46,8.46,0,0,0-1.74-6.18c-1.9-2.32-4.38-2-5.69.7-.34.68-.36,1.21.32,1.63,1.77,1.12,3.54,2.26,5.35,3.34A8.19,8.19,0,0,0,204.14,45.93Z"/><path d="M77.88,49.71c-.62,1.39-1.11,2.71-1.78,3.92-1.08,2-2.75,2.46-4.64,1.26a18.8,18.8,0,0,1-3-2.82,10,10,0,0,1-1-1.43,19.88,19.88,0,0,1-2.84,2.57,18.66,18.66,0,0,1-4.53,2,3.94,3.94,0,0,1-5-2.28,33.32,33.32,0,0,1-1.44-3.86c-2.19.81-4.42,1.6-6.62,2.48-.27.11-.48.66-.52,1a30.61,30.61,0,0,1-3.63,11.94,21.34,21.34,0,0,1-3.52,4.5,6.18,6.18,0,0,1-7,1.47,39.91,39.91,0,0,1-5.68-3c-1.25-.77-1.78-3.2-1.23-4.57a.67.67,0,0,1,1.13-.36c.57.37,1.14.74,1.68,1.15a5,5,0,0,0,5.32.49c4.52-2,7.36-5.63,9.1-10.15A1.23,1.23,0,0,0,42.22,53,2.28,2.28,0,0,1,41,50.43c.32-1.81.59-3.62.93-5.42a1.79,1.79,0,0,1,1.49-1.48,63.42,63.42,0,0,0,12.46-4.47,1.85,1.85,0,0,1,1.72.15,2.11,2.11,0,0,1,.29,1.72,6.45,6.45,0,0,0-.41,3c.55,2.51,1.7,3.32,4.19,2.7a6.58,6.58,0,0,0,4.71-3.91,28.16,28.16,0,0,0,1.43-4.3c.35-1.44,1.38-1,2.28-1.05,1.08,0,.93.8.86,1.46-.12,1.07-.3,2.13-.5,3.19a4.67,4.67,0,0,0,3,4.86,1.37,1.37,0,0,0,1.88-1.14c.46-1.85.78-3.73,1.14-5.6a5.79,5.79,0,0,0,0-.72c.21-2.43.75-3.1,3.32-3.9a4.46,4.46,0,0,1,.19,1c-.06,1.19-.14,2.39-.27,3.58-.38,3.49,1.22,5.57,4.7,5.8a15.72,15.72,0,0,0,7.37-1.24,1.27,1.27,0,0,0,.86-1.56A33.63,33.63,0,0,0,89.9,32.72,4.59,4.59,0,0,1,89.83,30a8.11,8.11,0,0,1,2.44-4.42,10,10,0,0,1,1,1.45c3.19,7.24,4.64,14.69,2.3,22.48a4.67,4.67,0,0,1-1.55,2.32,15.24,15.24,0,0,1-10.53,2.78,6.35,6.35,0,0,1-4.83-3.37C78.4,50.74,78.17,50.25,77.88,49.71Z"/><path d="M142.25,4.63c.19.42.34.59.35.77.17,2.56,1.63,4.44,3.21,6.28,2.21,2.56,2.16,5,0,7.66A2.57,2.57,0,0,0,145.2,21c.3,5.55.69,11.09,1,16.63A29.56,29.56,0,0,1,145,47.55c-1.06,3.77-3.63,5.67-7.16,6.6a17.3,17.3,0,0,1-8.78,0c-3.1-.78-4.9-3-6-5.87-.4-1.08-.67-2.2-1-3.33-.75,1-1.43,2.09-2.23,3.05A4,4,0,0,1,116,49.6c-2.51-.37-5-.72-7.53-1.2a7.88,7.88,0,0,1-2.38-1.09,4.52,4.52,0,0,1-2.19-5.73c1.4-4.14,3.51-7.79,7.6-9.89,2.6-1.32,5.15-2.72,7.75-4a1.37,1.37,0,0,0,1-1.62c-.23-1.92,2.08-5.73,3.8-6.52.63-.28.88,0,.93.61.23,2.59.42,5.18.73,7.76.52,4.36,1,8.72,1.71,13,.49,3.18,2.18,4.6,5.43,4.89,2.69.23,5.32.05,7.35-2A2.83,2.83,0,0,0,141,42c-.26-4.46-.64-8.92-.95-13.38-.24-3.51-.42-7-.65-10.52a3.46,3.46,0,0,0-.28-1.37,7.63,7.63,0,0,1-.23-7.13A16.4,16.4,0,0,1,142.25,4.63ZM110,39a24.73,24.73,0,0,0,3.58,1.54c2.3.58,4.65.9,6.89-.28.37-.2.85-.67.84-1-.11-2.44-.32-4.88-.52-7.44C117.65,34.9,113.26,35.7,110,39Z"/><path d="M21.14,19.26c.13,1.48.22,2.8.35,4.12.55,5.93,1,11.87,1.71,17.78.46,3.81,2.2,4.74,5.15,4.74A15.79,15.79,0,0,0,35,44.59c.78-.35,1.12-.83.82-1.68-.77-2.17-1.43-4.39-2.31-6.52s-.11-6,1.6-7.44c.68-.57,1.07-.08,1.28.45.95,2.49,2,5,2.72,7.51a22.18,22.18,0,0,1-.05,12,5.32,5.32,0,0,1-2.83,3.65A17.16,17.16,0,0,1,25.7,54.47a6,6,0,0,1-4.85-3.64c-.8-1.85-1.32-3.83-1.92-5.62-.49.85-1,1.91-1.67,2.91a2.8,2.8,0,0,1-3,1.48,33.3,33.3,0,0,1-5.57-1.24c-3-1.18-4.21-3.71-3.42-6.88C6.38,37,8.36,33,12.58,30.56c1.41-.83,2.7-1.86,4.09-2.72a1.73,1.73,0,0,0,1-1.91c-.35-2.62,1.33-4.4,2.74-6.27C20.52,19.52,20.74,19.47,21.14,19.26Zm-3,13c-1.46,1.09-2.92,2.15-4.35,3.26-1.07.83-2.1,1.7-3.14,2.58-.58.49-.55,1,.07,1.45a6.91,6.91,0,0,0,6.08,1.31c.8-.17,1.82-.52,1.78-1.63C18.48,36.84,18.28,34.47,18.13,32.24Z"/><path d="M106.57,4.59h4.77Q104,38.09,96.68,71.38H91.8Z"/><path d="M219.82,5.05h4.77c-.79,3.56-1.56,7.06-2.33,10.55L211.1,66.23c-.32,1.44-.61,2.88-1,4.31-.06.26-.4.64-.63.65-1.43,0-2.86,0-4.38,0Z"/><path d="M214.39,55.28c.69-2.83,1.32-5.58,2.07-8.3.09-.33.83-.6,1.31-.69,4.06-.77,8.15-1.45,12.21-2.26,1.51-.3,1.63-.5,1.13-2a46.3,46.3,0,0,0-2.56-6.27,4.32,4.32,0,0,1-.16-4.51,23.35,23.35,0,0,1,2.09-3.19c.85-1,1.68-.94,2.43.18a21.77,21.77,0,0,1,3.1,8.35,19.63,19.63,0,0,1-1.12,11.84,5.49,5.49,0,0,1-3.42,3.25,81.55,81.55,0,0,1-16.55,3.64A3.58,3.58,0,0,1,214.39,55.28Z"/><path d="M69.26,19.78a5.16,5.16,0,1,1-5.15-5.19A5.16,5.16,0,0,1,69.26,19.78Z"/><path d="M89.18,20.51a5.16,5.16,0,1,1-5.13-5.2A5.15,5.15,0,0,1,89.18,20.51Z"/><path d="M174.62,20.49a5.16,5.16,0,1,1-5.16-5.18A5.16,5.16,0,0,1,174.62,20.49Z"/><path d="M185.18,20.51a5.16,5.16,0,1,1-5.13-5.2A5.15,5.15,0,0,1,185.18,20.51Z"/><path d="M251.26,25.62a5.16,5.16,0,1,1,5.2-5.14A5.16,5.16,0,0,1,251.26,25.62Z"/><path d="M261.78,25.62A5.16,5.16,0,1,1,267,20.53,5.17,5.17,0,0,1,261.78,25.62Z"/><path d="M64,29.17A5.16,5.16,0,1,1,58.86,24,5.16,5.16,0,0,1,64,29.17Z"/><path d="M74.54,29.16A5.16,5.16,0,1,1,69.42,24,5.15,5.15,0,0,1,74.54,29.16Z"/><path d="M59.66,64.4a5.16,5.16,0,1,1-5.16-5.17A5.16,5.16,0,0,1,59.66,64.4Z"/><path d="M65.05,69.54a5.16,5.16,0,1,1,5.17-5.16A5.17,5.17,0,0,1,65.05,69.54Z"/><path d="M228.14,64.39A5.16,5.16,0,1,1,223,59.23,5.16,5.16,0,0,1,228.14,64.39Z"/></g></g></svg>