<svg xmlns="http://www.w3.org/2000/svg" viewBox="0 0 115.04 75.92"><g id="Layer_2" data-name="Layer 2"><g id="Layer_1-2" data-name="Layer 1"><path d="M115,75.92H0V0H115Zm-4-4V4H4V71.9Z"/><path d="M78.09,54c-.44.6-.86,1.12-1.22,1.68-2,3.11-5,4.32-8.55,4.49a10.47,10.47,0,0,1-6.84-1.68A9.92,9.92,0,0,1,57.57,51c-.47-4.44-.66-8.92-1-13.38C56,29.85,55.41,22,54.88,14.23a5.11,5.11,0,0,1,.43-2.64c1-1.92,2.3-3.74,3.53-5.55.23-.35.74-.51,1.12-.76a4.79,4.79,0,0,1,.63,1.34c.22,1.74.42,3.49.49,5.25.36,8.31.65,16.62,1,24.92.15,3.23.42,6.45.71,9.67a9.61,9.61,0,0,0,.66,2.4c.81,2.12,2.66,2.54,4.6,2.52,3.26,0,6-1.15,7.23-4.46a54.85,54.85,0,0,0,1.81-5.43A1.64,1.64,0,0,1,78.73,40c3.75-.21,3.59-.32,3,2.84-.2,1.14-.35,2.28-.55,3.42a3.44,3.44,0,0,0,2.3,4.18,15.59,15.59,0,0,0,4.32.83,48.42,48.42,0,0,0,14.05-1,20.13,20.13,0,0,0,3.46-1.55c.84-.39.79-1,.33-1.66a10.2,10.2,0,0,0-.78-1.05c-2.42-2.61-5.42-4.42-8.36-6.35-1,2-1,2-2.89.83a4.36,4.36,0,0,0-.41-.24c-4.08-1.74-4.91-5-4.22-9,.31-1.75.88-3.47,1.32-5.2a4.1,4.1,0,0,1,2.16-2.74q6.67-3.36,13.4-6.59c1.43-.68,3-1.17,4.66-1.83v5.58c0,2.13,0,2.09-2,2.89C104.11,25.18,99.66,27,94.94,29c.55.42.87.67,1.21.91,3.69,2.66,7.47,5.25,10.37,8.83,2.12,2.6,3.81,5.43,4.09,8.88a12.18,12.18,0,0,1-2.67,8.25,6,6,0,0,1-2.4,1.69,26.88,26.88,0,0,1-9.85,2.31,94,94,0,0,1-9.93.09A7.7,7.7,0,0,1,78.4,54.4,2.44,2.44,0,0,0,78.09,54Z"/><path d="M28.87,51a83.2,83.2,0,0,0,20.36-2.6c1.81-.49,1.93-.56,1.34-2.35a35.79,35.79,0,0,0-2.46-5.93A4.44,4.44,0,0,1,48,35.48a21.08,21.08,0,0,1,1.65-2.63c1.29-1.67,2.32-1.66,3.18.28a43.51,43.51,0,0,1,2.69,7.63,18.47,18.47,0,0,1-1,12A5.62,5.62,0,0,1,50.92,56a80,80,0,0,1-28.78,4,32.42,32.42,0,0,1-8.55-1.58C6.65,56.2,4.3,51.06,4.82,44.2a19.86,19.86,0,0,1,2.4-8.09,3.39,3.39,0,0,1,4.19-1.59c.83.3.61.94.44,1.51-.45,1.56-1,3.09-1.42,4.68-.91,3.84.48,6.93,4.11,8.41a29.68,29.68,0,0,0,7.27,1.81A55.4,55.4,0,0,0,28.87,51Z"/><path d="M75.77,28.36a5.16,5.16,0,1,1-5.17-5.17A5.16,5.16,0,0,1,75.77,28.36Z"/><path d="M81.13,33.49a5.15,5.15,0,1,1,5.2-5.13A5.14,5.14,0,0,1,81.13,33.49Z"/><path d="M30.7,71.18a5,5,0,0,1-5.09-5,5.21,5.21,0,0,1,5.09-5.27,5.42,5.42,0,0,1,5.21,5.24A5,5,0,0,1,30.7,71.18Z"/></g></g></svg>