<svg xmlns="http://www.w3.org/2000/svg" viewBox="0 0 109.28 75.92"><g id="Layer_2" data-name="Layer 2"><g id="Layer_1-2" data-name="Layer 1"><path d="M0,0H109.28V75.92H0ZM4,71.92H105.22V4.05H4Z"/><path d="M83.37,49.79c-.13.79-.25,1.64-.42,2.47a25.16,25.16,0,0,1-6.53,12.83c-3.12,3.17-6.91,4.51-11.25,3.19a46.16,46.16,0,0,1-7.11-3,3.7,3.7,0,0,1-1.37-4.52,1.39,1.39,0,0,1,1.23-.38,12.41,12.41,0,0,1,2.22,1.17,7.27,7.27,0,0,0,6.67.51A22.93,22.93,0,0,0,78.74,51.44a2.45,2.45,0,0,0-.25-3c-1.63-2.22-3.09-4.56-4.6-6.86a4.9,4.9,0,0,1-.45-4.9,29.47,29.47,0,0,1,2-4c.85-1.35,1.6-1.24,2.32.16.87,1.71,1.67,3.45,2.64,5.09a8.49,8.49,0,0,0,7.36,4.41A27.15,27.15,0,0,0,97.61,41c1-.33,1.49-.82,1-1.9-.95-2.05-1.74-4.2-2.87-6.14a4,4,0,0,1-.26-4.27,19.13,19.13,0,0,1,1.87-2.9c.82-1,1.41-1,2.18.12a25.55,25.55,0,0,1,4.1,9.74,16.88,16.88,0,0,1-.84,9.87,5.27,5.27,0,0,1-2.08,2.61A24.34,24.34,0,0,1,86,50.81,12,12,0,0,1,83.37,49.79Z"/><path d="M31.22,43.1a7.85,7.85,0,0,0-.36.91,8,8,0,0,1-6.27,6.53,20.54,20.54,0,0,1-6.14.63c-3.19-.19-4.71-1.7-4.78-4.88s.37-6.13.6-9.19a.93.93,0,0,1,1.3-.85,2,2,0,0,1,1.25.93,14.78,14.78,0,0,1,.4,2.35,2.58,2.58,0,0,0,2.41,2.15,12.54,12.54,0,0,0,8.09-1.53,3,3,0,0,0,1.56-3.43c-.77-4.24-1.51-8.49-2.34-12.72a5.56,5.56,0,0,1,.67-4.24c.64-1,1.24-2.06,1.91-3a3.41,3.41,0,0,1,.93-.67,4.58,4.58,0,0,1,.48,1C32,22.7,33,28.36,34,34a34.93,34.93,0,0,0,1,4.31,5,5,0,0,0,5.2,3.93A18.35,18.35,0,0,0,47.57,41c1-.39,1.32-.95,1-1.93-.76-2.09-1.41-4.23-2.34-6.25-1.08-2.34-.38-6.29,1.62-7.9.72-.58,1.15-.09,1.39.48a77.78,77.78,0,0,1,2.89,7.32,22.09,22.09,0,0,1-.1,13,4.58,4.58,0,0,1-2.17,2.89A18.14,18.14,0,0,1,37.61,51c-3.39-.59-5.06-3.1-6-6.19C31.47,44.3,31.38,43.8,31.22,43.1Z"/><path d="M66.37,39a2.12,2.12,0,0,0-.54.32c-2.14,2.41-4.81,2.47-7.59,1.59a6.9,6.9,0,0,1-5-6A14.75,14.75,0,0,1,58.63,21c3-2.5,6.27-2.12,8.94.77a16.66,16.66,0,0,1,4,9.54,31.29,31.29,0,0,1-4.19,20.59c-2.18,3.63-5.07,6.55-9.39,7.43-3.87.78-7.51-.31-11-1.9-.43-.19-.86-.42-1.27-.65C43.55,55.57,43,54.44,43.36,52c.13-.84.54-1.13,1.33-.72s1.29.64,1.92,1A8.8,8.8,0,0,0,54,53,19.47,19.47,0,0,0,66.26,42.31,4.12,4.12,0,0,0,66.37,39Zm-3.78-5c.85-.3,1.68-.55,2.47-.87a.84.84,0,0,0,.36-.64c0-1.61-2-4.28-3.51-4.8a3.44,3.44,0,0,0-4,1.92c-.55,1.27,0,2.48,1.54,3.27A27.74,27.74,0,0,0,62.59,34Z"/><path d="M8,15.25c-.14-.58-.5-1.22-.37-1.73.55-2.07,1.24-4.11,1.9-6.15a1.3,1.3,0,0,1,1.79-.9A23,23,0,0,1,23.3,14a11.71,11.71,0,0,1,2,4.88,17.51,17.51,0,0,1-.45,8.76c-1.34,4.57-4.56,6.87-9.06,7.59a15.73,15.73,0,0,1-4.28.05C7.86,34.81,6,32.78,5.41,29.15c-.64-4,.41-7.67,1.83-11.31.33-.85.73-1.68,1.1-2.51Zm6.45,11.34.09.22a44,44,0,0,0,5.09-1.54c2.06-.9,2.22-2.12.68-3.81A19.42,19.42,0,0,0,13.7,17a1,1,0,0,0-1,.25A28.59,28.59,0,0,0,10,21.32c-1.2,2.41-.21,4.32,2.41,5C13.08,26.45,13.76,26.49,14.43,26.59Z"/><path d="M46.22,15.48a5.16,5.16,0,1,1-5.12-5.21A5.15,5.15,0,0,1,46.22,15.48Z"/><path d="M93.74,57a5.16,5.16,0,1,1-5.16-5.17A5.16,5.16,0,0,1,93.74,57Z"/><path d="M104.54,56.94a5.16,5.16,0,1,1-5.18-5.15A5.16,5.16,0,0,1,104.54,56.94Z"/><path d="M99,66.36a5.16,5.16,0,1,1-5.12-5.21A5.15,5.15,0,0,1,99,66.36Z"/></g></g></svg>