<svg xmlns="http://www.w3.org/2000/svg" viewBox="0 0 153.92 75.92"><g id="Layer_2" data-name="Layer 2"><g id="Layer_1-2" data-name="Layer 1"><path d="M153.92,75.92H0V0H153.92ZM4,4V71.86H149.91V4Z"/><path d="M134.91,34.41c-1,2.41-.86,2.26-3,.94-3.55-2.22-4.72-5.37-4.13-9.31.36-2.49.85-4.95,1.32-7.42a5.3,5.3,0,0,1,2.07-3.13,74.5,74.5,0,0,1,13.66-8.15c1.31-.65,2.63-1.27,4.11-2,0,2.94,0,5.73,0,8.51,0,.28-.5.63-.85.81-4.43,2.29-8.88,4.55-13.32,6.83-.38.2-.75.43-1.28.74.41.38.76.68,1.08,1,2.72,2.7,5.58,5.28,8.1,8.16a21.7,21.7,0,0,1,5.2,11.15,15.91,15.91,0,0,1-2.48,10.75,6.47,6.47,0,0,1-2.44,2,23.67,23.67,0,0,1-9.41,2.59,67.69,67.69,0,0,1-6.83.27c-4.24,0-6.79-1.89-8.23-5.86-.15-.41-.31-.8-.5-1.3-.79,1.25-1.47,2.41-2.24,3.52-2.28,3.33-5.7,4-9.34,3.6-3.19-.33-5.19-2.46-6.39-5.33-1.46-3.45-1.64-7.13-1.9-10.8-.68-9.73-1.41-19.45-2.06-29.18a4.55,4.55,0,0,1,.53-2.4c.93-1.62,2-3.17,3.09-4.7.24-.35.75-.51,1.14-.75a4.12,4.12,0,0,1,.62,1.31c.35,5.42.69,10.85,1,16.28.3,6,.5,12,.79,18,.13,2.78,1,5.27,3.41,6.91a3.3,3.3,0,0,0,1.64.61c2.22.07,5.36-.68,6.49-3.77A72.64,72.64,0,0,0,117,36.63a1.92,1.92,0,0,1,2-1.73c2.68-.15,2.77-.07,2.42,2.55l-.72,5.34a4.19,4.19,0,0,0,2.41,4.31,13.29,13.29,0,0,0,4.16.93,38.64,38.64,0,0,0,11.55-.94,19.91,19.91,0,0,0,4.06-2,1.34,1.34,0,0,0,.4-2.21,28.26,28.26,0,0,0-2.66-3.38C138.83,37.79,136.89,36.18,134.91,34.41Z"/><path d="M71.85,45.59c-.81.68-1.67,1.32-2.42,2.06-2.09,2.08-4.07,4.29-6.23,6.31-3.78,3.53-8.45,4.56-13.44,4.2C47.5,58,46,56.47,45,54.52A23.09,23.09,0,0,1,42.93,45c-.47-8.5-.83-17-1.28-25.52-.11-2.11-.38-4.21-.55-6.33a2.73,2.73,0,0,1,.12-1.4c1-2.08,2.08-4.12,3.15-6.16.08-.15.31-.22.71-.51a15,15,0,0,1,.41,2q.39,8,.73,15.93c.26,6.23.49,12.47.74,18.7a6,6,0,0,0,.11.95c.73,4,2,4.87,6.09,4.63A21.84,21.84,0,0,0,66.9,41.55c.33-.29.68-.56,1-.84L69,39.9a9.23,9.23,0,0,0-.86-.45c-2.62-1-5.23-2-7.88-2.81a4.28,4.28,0,0,0-5.12,1.59c-.2.27-.62.38-.93.56a4.31,4.31,0,0,1-.29-1,16.08,16.08,0,0,1,2.32-9,4.22,4.22,0,0,1,4.4-2.27c2.68.25,5.05,1.42,7.5,2.37,3.19,1.25,6.4,2.42,9.66,3.49a12.34,12.34,0,0,0,3.55.42c1,0,1.32.47,1.13,1.34-.55,2.54-1.13,5.06-1.72,7.59-.2.83-.72,1.06-1.6,1a16.69,16.69,0,0,0-3.29.33.76.76,0,0,0-.53,1.27,6.36,6.36,0,0,0,2,1.88c2.57,1.23,5.38,1.1,8.13,1.12a12.24,12.24,0,0,0,6.1-1.51c.84-.47,1.38-1,1.06-2.08-.71-2.49-1.12-5.08-2-7.48a9.19,9.19,0,0,1-.13-6.76,30,30,0,0,1,1.23-2.86c.13-.28.51-.64.76-.62s.58.42.68.72c.83,2.57,1.78,5.12,2.4,7.75a37.72,37.72,0,0,1,.18,16.88,6.66,6.66,0,0,1-3,4.4,16.17,16.17,0,0,1-11,2.31,28.07,28.07,0,0,1-4.35-.84c-4.21-1.18-5.83-3.6-5.5-8,.08-1.15.18-2.3.28-3.45Z"/><path d="M22,17.46c.07.41.16.82.2,1.23.64,7.93,1.26,15.85,1.91,23.78A10.23,10.23,0,0,0,24.42,44c.72,3,2.35,4.24,5.42,4.1a14.26,14.26,0,0,0,6.45-1.61A1.26,1.26,0,0,0,37,44.84c-.79-2.54-1.36-5.18-2.38-7.62-1.39-3.33,0-6,1.58-8.66.5-.85,1.06-.24,1.3.36.73,1.8,1.52,3.6,2.07,5.47a32.81,32.81,0,0,1,.66,17.39,5.87,5.87,0,0,1-2.83,4A15.83,15.83,0,0,1,26.89,58a6,6,0,0,1-4.83-3.7c-.95-2.3-1.57-4.73-2.31-7l-.2.42c-.53,1-1,2.09-1.59,3.08a2.81,2.81,0,0,1-3.21,1.54,32.73,32.73,0,0,1-5.53-1.42,6.24,6.24,0,0,1-3.64-7.1A23.71,23.71,0,0,1,8.65,35.2a18.1,18.1,0,0,1,3.58-4C14,29.72,15.86,28.36,17.74,27a1.59,1.59,0,0,0,.75-1.7c-.43-3.24,1.43-5.54,3.1-7.91ZM19,32.21c-1.27,1.11-2.44,2.11-3.59,3.14q-2.1,1.86-4.18,3.75c-.59.53-.53,1,.06,1.59a6.71,6.71,0,0,0,6.12,1.62c.89-.17,2-.64,2-1.78C19.34,37.75,19.14,35,19,32.21Z"/><path d="M69.05,10.67A5.16,5.16,0,1,1,64,5.43,5.18,5.18,0,0,1,69.05,10.67Z"/><path d="M115.3,16.23a5.16,5.16,0,1,1-5.2,5.13A5.16,5.16,0,0,1,115.3,16.23Z"/><path d="M91.85,65.78a5.16,5.16,0,1,1-5.19-5.15A5.17,5.17,0,0,1,91.85,65.78Z"/><path d="M30.71,15.74a5.16,5.16,0,1,1,5.22-5.13A5.16,5.16,0,0,1,30.71,15.74Z"/><path d="M115.33,5.43a5.16,5.16,0,1,1-5.23,5.11A5.15,5.15,0,0,1,115.33,5.43Z"/></g></g></svg>