<svg xmlns="http://www.w3.org/2000/svg" viewBox="0 0 144.1 75.97"><g id="Layer_2" data-name="Layer 2"><g id="Layer_1-2" data-name="Layer 1"><path d="M144.1,0V76H0V0ZM4,4V71.9H140.06V4Z"/><path d="M115.9,44.72c-.6.93-1.15,1.76-1.68,2.59-1.64,2.63-4.14,3.65-7.09,3.78q-2,.07-4,0c-.84,0-1.14.2-1.29,1.09a30.1,30.1,0,0,1-5.92,14c-3.09,3.82-7,5.34-11.7,3.75A40.49,40.49,0,0,1,78,67c-1.39-.76-2.09-3.39-1.39-4.81a1.35,1.35,0,0,1,1.23-.32,8.78,8.78,0,0,1,1.86,1.09,6.44,6.44,0,0,0,5.63.8c6.18-1.92,10.16-6.1,12.26-12.16a1.1,1.1,0,0,0,0-.36c-1.71-.19-3.42-.26-5.08-.61a8,8,0,0,1-6.6-7.4A18.21,18.21,0,0,1,89.34,30.3a11.21,11.21,0,0,1,2.56-2.49,4.26,4.26,0,0,1,5.88.46,13.58,13.58,0,0,1,3.64,6.91c.55,2.19.89,4.44,1.32,6.68a46.64,46.64,0,0,0,5.79,0,5.08,5.08,0,0,0,4.37-3.33c.81-2.24,1.53-4.53,2.13-6.84a1.71,1.71,0,0,1,1.79-1.53c.32,0,.64-.05,1-.06,1.51-.06,1.79.24,1.59,1.72-.23,1.66-.45,3.32-.7,5a3.89,3.89,0,0,0,2.69,4.61,15,15,0,0,0,7.35.43,36.56,36.56,0,0,0,5.07-1.37.93.93,0,0,0,.66-1.39A47.8,47.8,0,0,0,132,32.68a5.59,5.59,0,0,1-.13-5.78,20.26,20.26,0,0,1,1.2-2.07c.85-1.2,1.44-1.22,2.06.08A52.43,52.43,0,0,1,138,31.62a22.35,22.35,0,0,1,.17,13.47,5.09,5.09,0,0,1-2.36,3.31,21.64,21.64,0,0,1-13.19,2.54,7.24,7.24,0,0,1-6.25-5.21c-.1-.26-.19-.52-.29-.79ZM97.2,42a9.46,9.46,0,0,0-2.06-5.4A2.61,2.61,0,0,0,92,35.7a3.39,3.39,0,0,0-2.11,2.82A2.52,2.52,0,0,0,92,41C93.58,41.46,95.28,41.64,97.2,42Z"/><path d="M21.53,41.93c-2.39-6.16-.06-11,3.74-15.4-.59-.29-1.45-.44-1.65-.89a3.37,3.37,0,0,1,.1-2.07c.62-2.19,1.26-4.37,2-6.52.46-1.35,1.14-1.62,2.28-.82,7.62,5.4,13.85,11.87,15.94,21.38a14.5,14.5,0,0,1-2.32,11.88C40,51.84,38.69,52.43,36,51.56a61,61,0,0,1-7.17-2.94,1.74,1.74,0,0,0-2,.09,18.74,18.74,0,0,1-10.75,3.55,7.06,7.06,0,0,1-6.59-4,17.92,17.92,0,0,1-1.85-7.38C7,32.34,6.45,23.8,5.89,15.26c0,0,0-.08,0-.12C4.72,11.51,6.76,9,8.82,6.41a4.06,4.06,0,0,1,1-.62c.19.36.52.71.55,1.09.24,2.75.47,5.5.6,8.25.35,7.19.6,14.39,1,21.58.28,5.12,2.48,6.75,7.47,5.75C20.08,42.33,20.76,42.13,21.53,41.93Zm10.54-8.34A23.69,23.69,0,0,0,31,30.77c-.63-1.23-1.44-1.45-2.7-.88a6.45,6.45,0,0,0-3.68,4.86,2.33,2.33,0,0,0,.2,1.26,6.14,6.14,0,0,0,3.1,3,1.07,1.07,0,0,0,.77,0A6.62,6.62,0,0,0,32.07,33.59Zm3.75,0a13.16,13.16,0,0,1-1.9,8.13c1.85.67,3.53,1.54,5.49,1,1-.29,1.48-.8,1.08-1.94A19.78,19.78,0,0,0,35.82,33.59Z"/><path d="M62.68,43.06a8.58,8.58,0,0,0-.34.95c-1,4.82-4.61,6.4-8.89,7a13.35,13.35,0,0,1-3.94-.1c-2.55-.42-3.91-1.79-3.94-4.36,0-3.07.28-6.14.47-9.21.06-.85.68-1,1.39-.94s1.17.21,1.21,1c0,.24,0,.48.07.72.47,3.09,1.26,3.78,4.43,3.75a12.29,12.29,0,0,0,5.75-1.42,3.15,3.15,0,0,0,1.88-3.94c-.74-4-1.45-7.93-2.23-11.89A5.81,5.81,0,0,1,59.31,20c.57-.87,1.07-1.79,1.66-2.64a7.23,7.23,0,0,1,1.24-1c.4,2.38.7,4.42,1.08,6.45.88,4.75,1.77,9.5,2.71,14.23a10.31,10.31,0,0,0,1,2.69,4.33,4.33,0,0,0,3.61,2.45A17.15,17.15,0,0,0,78.89,41c.78-.32,1.14-.77.8-1.66-.79-2.08-1.4-4.24-2.33-6.25-1-2.29-.39-6.09,1.57-7.69.73-.59,1.15-.1,1.4.47A70.21,70.21,0,0,1,83,32.45a21.8,21.8,0,0,1,.2,12.65,5.52,5.52,0,0,1-2.9,3.73A19.86,19.86,0,0,1,70.38,51c-3.7-.17-6.32-2.48-7.31-6.33C63,44.24,62.85,43.77,62.68,43.06Z"/><path d="M78.15,14.53a5.16,5.16,0,1,1-5.1-5.24A5.17,5.17,0,0,1,78.15,14.53Z"/><path d="M105.05,56.42a5.16,5.16,0,1,1,5.14,5.2A5.15,5.15,0,0,1,105.05,56.42Z"/><path d="M121,61.62a5.16,5.16,0,1,1,5.2-5.15A5.16,5.16,0,0,1,121,61.62Z"/><path d="M53.44,59.79A5.16,5.16,0,1,1,58.59,65,5.15,5.15,0,0,1,53.44,59.79Z"/><path d="M69.37,65a5.16,5.16,0,1,1,5.18-5.16A5.16,5.16,0,0,1,69.37,65Z"/><path d="M115.4,71a5.16,5.16,0,1,1,5.24-5.1A5.15,5.15,0,0,1,115.4,71Z"/></g></g></svg>