<svg xmlns="http://www.w3.org/2000/svg" viewBox="0 0 84.1 75.97"><g id="Layer_2" data-name="Layer 2"><g id="Layer_1-2" data-name="Layer 1"><path d="M0,76V0H84.1V76ZM4,4V71.93H80.1V4Z"/><path d="M43.29,33.77a1.91,1.91,0,0,0-.49.26C38.45,38,31.33,35.8,30.31,30a14.53,14.53,0,0,1,5.17-14.17c3.16-2.7,6.52-2.26,9.28.87a16.51,16.51,0,0,1,3.8,9,30.83,30.83,0,0,1-5.23,22.53A13.59,13.59,0,0,1,35.22,54a11.84,11.84,0,0,1-6.39-.24,59.12,59.12,0,0,1-7-2.89c-1.35-.65-2-3.23-1.31-4.56a1.14,1.14,0,0,1,1-.38A15.13,15.13,0,0,1,23.65,47a8.74,8.74,0,0,0,7.28.7A19.44,19.44,0,0,0,43.28,37,3.32,3.32,0,0,0,43.29,33.77ZM38.17,22a4,4,0,0,0-3.44,2.69c-.3,1.15.3,2.28,1.84,2.94a9,9,0,0,0,3.31.82c2.44.06,3-.89,1.95-3a6.31,6.31,0,0,0-1.33-1.95A14.57,14.57,0,0,0,38.17,22Z"/><path d="M73.86,50.53a3.1,3.1,0,0,0-.65.38c-2.14,2.34-4.78,2.35-7.5,1.47a7,7,0,0,1-5-6A15,15,0,0,1,63.82,34.9a13.15,13.15,0,0,1,3.42-3.1,5.51,5.51,0,0,1,6.78.55,14.2,14.2,0,0,1,4.78,8.89,30.63,30.63,0,0,1-5,23.82,13.5,13.5,0,0,1-8.1,5.79,12.84,12.84,0,0,1-7.09-.4A50.18,50.18,0,0,1,52,67.52c-1.11-.56-1.67-3.43-1-4.45a1.22,1.22,0,0,1,1.08-.25,13.24,13.24,0,0,1,2,1,8.79,8.79,0,0,0,7.4.67A19.44,19.44,0,0,0,73.76,53.82,3.89,3.89,0,0,0,73.86,50.53ZM70.1,45.48c.85-.29,1.65-.51,2.4-.84a.85.85,0,0,0,.39-.71c-.48-2-1.32-3.69-3.23-4.62A3.3,3.3,0,0,0,65.43,41c-.68,1.36-.19,2.61,1.52,3.45A25.93,25.93,0,0,0,70.1,45.48Z"/><path d="M4.68,38.94c.11-1.59.23-3.19.33-4.78,0-1,.59-1.37,1.57-1.34s1.65,0,1.75,1.26c.13,1.62,1.05,2.48,2.9,2.83a24.36,24.36,0,0,0,9.28-.34c1.32-.26,2.62-.67,3.93-1,.8-.21,1-.68.84-1.53-.85-3.55-3-6.32-5.39-8.92-1.64-1.76-3.41-3.37-5.93-3.81-.92-.16-1.29-.69-.9-1.65.54-1.32.95-2.71,1.56-4,1.21-2.59,2.75-2.9,5-1.1A26.94,26.94,0,0,1,27,23.6c2,4,3.24,8.2,2.71,12.7a21.86,21.86,0,0,1-1.41,5,2.83,2.83,0,0,1-1.47,1.46c-5.56,2.2-11.27,3.56-17.3,2.79-3.69-.47-4.69-1.7-4.75-5.44,0-.4,0-.8,0-1.2Z"/><path d="M60.05,42.87a26.29,26.29,0,0,1-7.31,17.49A10.34,10.34,0,0,1,42,63.47a48.83,48.83,0,0,1-7.6-3.09,3.7,3.7,0,0,1-1.49-4.51c.28-.73.79-.7,1.35-.43.83.38,1.65.81,2.46,1.23a8,8,0,0,0,7.17.18,22.38,22.38,0,0,0,10.81-10,4.49,4.49,0,0,0,.18-4.57c-1.3-2.37-2.61-4.75-4.1-7a4.43,4.43,0,0,1-.91-3.9c.48-1.64.9-3.3,1.54-4.88.48-1.19,1.23-1.24,2.1-.27a25.94,25.94,0,0,1,6.17,13C59.9,40.46,59.94,41.67,60.05,42.87Z"/></g></g></svg>