<svg xmlns="http://www.w3.org/2000/svg" viewBox="0 0 216.1 75.95"><g id="Layer_2" data-name="Layer 2"><g id="Layer_1-2" data-name="Layer 1"><path d="M216.1,76H0V0H216.1Zm-4-4V4H4V71.92Z"/><path d="M102.11,40c3.16-.39,6.24-.75,9.31-1.18a6.88,6.88,0,0,0,1.66-.67,1.72,1.72,0,0,0,1.15-2.35c-.85-2.74-1.51-5.53-2.42-8.25-.84-2.48.21-7.32,2.31-9.27a8.13,8.13,0,0,1,.8,1.24c3.19,7.86,4.32,15.92,2.42,24.29a5.91,5.91,0,0,1-2.62,3.84,15,15,0,0,1-8.46,2.64c-1.91,0-3.83-.07-5.75-.17a5.61,5.61,0,0,1-4.7-2.29c-4.76,2.52-9.75,2.85-14.89,2.22-2.15-.26-2.17-.23-2.77,1.86-.55,1.91-1,3.85-1.61,5.76a2.12,2.12,0,0,1-.86,1.19c-1.31.65-2.28,0-2-1.47.49-2.75,1.1-5.48,1.74-8.2a1.29,1.29,0,0,0-.6-1.67c-.9-.59-1.69-1.35-2.6-2.08-2,4.23-5.9,5.49-10.66,4.75-.48,2.46-.86,4.77-1.39,7a27.65,27.65,0,0,1-3.92,9.47,7.66,7.66,0,0,1-3.8,3.35,5.08,5.08,0,0,1-2.55.26,16.65,16.65,0,0,1-6.46-3A5.28,5.28,0,0,1,41,62.2c.09-.75.31-1.49.47-2.24a16.63,16.63,0,0,1,1.74,1.12c2.52,2.08,4.18,2.28,6.95.54,4.15-2.58,6.29-6.53,7.51-11.23l-2.74-.27a7.27,7.27,0,0,1-6.36-4.75,17.91,17.91,0,0,1-1.06-8.72,25.12,25.12,0,0,1,2.87-10.56A14.12,14.12,0,0,1,53,22.71a2.57,2.57,0,0,1,4.11.23,15.94,15.94,0,0,1,2.77,5.22,90.35,90.35,0,0,1,1.78,10.12c.15,1,.44,1.49,1.52,1.35a11.19,11.19,0,0,1,1.92,0c3.36.18,5.57-1.42,6.81-4.44.64-1.54,1.16-3.14,1.7-4.73a1.53,1.53,0,0,1,1.49-1.15c1-.06,1.53.26,1.4,1.36-.11.87-.15,1.75-.23,2.62-.21,2.14.85,3.64,2.52,5,.25-.46.44-.82.63-1.19,2.86-5.45,6.12-10.6,10.71-14.78a14.52,14.52,0,0,1,2.72-1.95,4.79,4.79,0,0,1,6.27.72,13.12,13.12,0,0,1,4.38,12.32C103.18,35.51,102.64,37.56,102.11,40Zm-19.59-.46c5.72.49,10.88-.16,15.54-3.17a2.31,2.31,0,0,0,.59-1.88,7.2,7.2,0,0,0-3.16-4.88,3.37,3.37,0,0,0-4.31-.11C87.54,32.08,85,35.55,82.52,39.58Zm-25.35,0a12.7,12.7,0,0,0-1.88-6.48c-.74-1.1-1.76-1.39-2.65-.75A4,4,0,0,0,51,35.82,3,3,0,0,0,53,38.63C54.3,39,55.63,39.21,57.17,39.54Z"/><path d="M173.85,60l-4.11-3a11.7,11.7,0,0,1-11.53,4.79c-5.24-.75-7.28-4.5-8.33-9.25-.46,1.26-.88,2.36-1.28,3.48-1,2.87-3.53,4-6.08,5a16.52,16.52,0,0,1-8.86.77c-3.11-.51-4.8-2.32-4.78-5.49,0-3.55.42-7.09.67-10.63.07-1,.84-1,1.6-1s1.43.12,1.54,1.11.27,1.81.45,2.71a2.84,2.84,0,0,0,2.51,2.39,15,15,0,0,0,10.49-1.94,3.22,3.22,0,0,0,1.45-3.64c-.9-4.9-1.82-9.8-2.8-14.69a6.2,6.2,0,0,1,.79-4.93c.75-1.13,1.41-2.32,2.2-3.42a5,5,0,0,1,1.19-.9,5,5,0,0,1,.63,1.3c1.18,6.19,2.29,12.39,3.47,18.58a57.32,57.32,0,0,0,1.39,5.93,6,6,0,0,0,5.85,4.47c4.52.26,7.46-1.4,9.47-5.48.51-1,1-2.09,1.49-3.13a2.6,2.6,0,0,1,3.35-1.16,1.29,1.29,0,0,1,.49,1,15.35,15.35,0,0,1-.2,2c-.24,2.66.73,4.31,3.23,5.46,1.4-1.82,2.74-3.71,4.23-5.47A46.75,46.75,0,0,1,194,34.35c5.54-3.3,10.16-2.92,15,3.45a9.67,9.67,0,0,1,1.61,7.87,23.33,23.33,0,0,1-4.34,10.12,11.3,11.3,0,0,1-5.43,3.55,42.3,42.3,0,0,1-21.58,2.09c-.81-.12-1.25,0-1.54.83-.78,2.22-1.57,4.43-2.49,6.59a2.77,2.77,0,0,1-1.56,1.41c-1.92.55-2.66-.18-2.17-2.12C172.24,65.37,173.09,62.64,173.85,60Zm9.46-8.74.09.52c1.62,0,3.25,0,4.87,0a39.84,39.84,0,0,0,14.58-2.86c1.41-.6,1.73-1.29,1.32-2.71-.73-2.5-5.47-6.26-9.15-4.54A34.38,34.38,0,0,0,183.31,51.23Z"/><path d="M28.4,47.5c-.26,1.61-.49,3.5-.87,5.36a35.09,35.09,0,0,1-4.59,12c-3.6,5.66-7.75,6.63-13.52,3.2-.54-.32-1-.74-1.6-1C5.29,65.6,5,63.29,5.24,60.72c.12-1,.57-1.23,1.43-.62.68.49,1.35,1,2,1.52a4.66,4.66,0,0,0,5,.55,14.75,14.75,0,0,0,5.44-4.23A24.22,24.22,0,0,0,24.67,48a2.78,2.78,0,0,0-.19-1.68c-1.32-2.87-2.71-5.7-4.09-8.54a8.79,8.79,0,0,1-.5-6.87c.56-1.62,1.19-3.21,1.87-4.78a1.42,1.42,0,0,1,1-.71c.2,0,.57.5.7.84.76,2,1.43,4.06,2.22,6.06A15.56,15.56,0,0,0,27.05,35a6.54,6.54,0,0,0,5.71,3.17,18.1,18.1,0,0,0,7.59-1.4c1.12-.47,1.63-1.13,1.2-2.39-.82-2.41-1.38-4.93-2.39-7.25a6.8,6.8,0,0,1-.2-5.76c.43-1,.83-2,1.35-2.93a5,5,0,0,1,1.07-1,5.45,5.45,0,0,1,1,1.1,37,37,0,0,1,3.31,10.46,30.57,30.57,0,0,1-.59,13.42,5.57,5.57,0,0,1-2.53,3.49A17.76,17.76,0,0,1,32,48.66,14.89,14.89,0,0,1,28.4,47.5Z"/><path d="M128.68,4.77h4.75c-.38,1.76-.73,3.45-1.11,5.13q-5,22.53-10,45.06C121.22,60,120.08,65.07,119,70.14c-.14.65-.4.85-1,.83-1.31,0-2.61,0-4,0C118.86,48.8,123.76,26.83,128.68,4.77Z"/><path d="M141.47,34.14a39.38,39.38,0,0,1-1.56,12.77,1.7,1.7,0,0,1-1.86,1.47c-1,0-1.52-.47-1.54-1.53,0-2.64-.07-5.28-.26-7.91-.38-5.34-.89-10.67-1.3-16-.29-3.66-.54-7.33-.73-11a3.32,3.32,0,0,1,.52-2c1.15-1.52,2.43-2.95,3.73-4.36.27-.29.84-.32,1.27-.47a4.71,4.71,0,0,1,.36,1.18q.71,12,1.36,24.06C141.52,31.58,141.47,32.86,141.47,34.14Z"/><path d="M82,10.85a5.16,5.16,0,1,1-5.16-5.18A5.16,5.16,0,0,1,82,10.85Z"/><path d="M103.85,65.33a5.16,5.16,0,1,1-5.17-5.16A5.16,5.16,0,0,1,103.85,65.33Z"/><path d="M71.21,11a5.16,5.16,0,1,1-5.06-5.28A5.16,5.16,0,0,1,71.21,11Z"/><path d="M87.88,70.48a5.16,5.16,0,1,1,5.17-5.17A5.17,5.17,0,0,1,87.88,70.48Z"/></g></g></svg>