<svg xmlns="http://www.w3.org/2000/svg" viewBox="0 0 171.92 75.93"><g id="Layer_2" data-name="Layer 2"><g id="Layer_1-2" data-name="Layer 1"><path d="M0,75.93V0H171.92V75.93Zm4-4H167.89V4.05H4Z"/><path d="M51.77,63.07a6,6,0,0,1,1.9.54c3.88,2.76,7.65,2.09,11.39-.25a24.12,24.12,0,0,0,8.63-9,2.58,2.58,0,0,0-.22-3.14c-1.62-2.17-3-4.49-4.55-6.75a5,5,0,0,1-.43-5.12,31.18,31.18,0,0,1,2.08-4c.77-1.2,1.52-1.06,2.18.22.92,1.76,1.77,3.57,2.79,5.28a8.22,8.22,0,0,0,7.18,4.26,48.42,48.42,0,0,0,13.69-1.06,19.44,19.44,0,0,0,3.46-1.56.9.9,0,0,0,.35-1.55A15.19,15.19,0,0,0,98,38.46c-2.21-1.76-4.53-3.39-6.75-5-.23.14-.32.16-.34.22-.76,1.84-.77,1.85-2.47.81-1-.62-2-1.32-3-2a4.31,4.31,0,0,1-2-3.52,19.61,19.61,0,0,1,1.73-9.91A4.29,4.29,0,0,1,87,17.12c4.39-2.26,8.77-4.55,13.29-6.53s9.4-3.73,14.12-5.57c1.36-.53,1.82-.25,1.44,1.13a40.56,40.56,0,0,1-2.21,6.27,4.24,4.24,0,0,1-2.2,1.63c-6.83,2.77-13.69,5.46-20.54,8.18-.41.16-.8.36-1.38.62.43.33.75.58,1.08.82,3.7,2.66,7.47,5.24,10.38,8.82,2.11,2.6,3.81,5.43,4.09,8.89a12.24,12.24,0,0,1-2.67,8.24,6.07,6.07,0,0,1-2.4,1.7,27.7,27.7,0,0,1-10.21,2.33c-2.9.18-5.82.14-8.72,0a9.82,9.82,0,0,1-2.75-1c-.13.78-.24,1.63-.42,2.47a25.41,25.41,0,0,1-6.61,12.92,11.09,11.09,0,0,1-11.42,3,47.31,47.31,0,0,1-6.07-2.46,3.5,3.5,0,0,1-2.29-4c.05-.4,0-.8.05-1.2Z"/><path d="M156.62,44.27c-2.76-1.29-5.25-2.53-7.81-3.62a3.51,3.51,0,0,0-4.55,1.28c-.14.2-.25.41-.47.77a3.09,3.09,0,0,1-.49-2.93,26.21,26.21,0,0,1,1.9-5.26,3.33,3.33,0,0,1,4.55-1.77A40.17,40.17,0,0,1,155,35.2c1.79.95,3.44,2.22,5.3,3a33.62,33.62,0,0,0,5.83,1.57c.7.15,1.06.35.92,1-.46,2.18-1,4.36-1.45,6.54a.94.94,0,0,1-1.26.78c-3.17-.81-5.68.6-8,2.43-1.05.8-2,1.67-3,2.55a21.7,21.7,0,0,1-7.51,4.3,8.22,8.22,0,0,1-8.41-2.56c-1.79-2.33-2.37-5.1-3-7.85-.29-1.19-.56-2.39-1-3.67-1.25,3.69-3.36,6.2-7.5,5.77-.24,2.31-.3,4.51-.72,6.64a22.83,22.83,0,0,1-6.08,11.74c-3.19,3.28-7,4.66-11.53,3.5a25.86,25.86,0,0,1-7.75-3.36C98.7,66.9,98,64.3,98.76,63.21a1.43,1.43,0,0,1,1.3-.22,27.58,27.58,0,0,1,2.81,1.32,7.56,7.56,0,0,0,6.9,0,23.09,23.09,0,0,0,10.45-9.86,3.63,3.63,0,0,0,.13-3.76,28.92,28.92,0,0,0-2.46-3.94,3.18,3.18,0,0,1-.64-3.44A30.36,30.36,0,0,1,119.78,39c.59-.88,1.34-.92,2.18-.09,2.79,2.79,8.52,2.05,9.8-2.48a12.08,12.08,0,0,1,1.64-3.39,9.45,9.45,0,0,1,2.21-2.16c1.12-.85,1.54-.61,1.83.74.86,4.05,1.76,8.1,2.65,12.14.09.39.23.77.35,1.15.95,3.17,3.27,4.33,6.39,3.6a33.31,33.31,0,0,0,5.59-2C153.77,46,155,45.14,156.62,44.27Z"/><path d="M27.72,47.36c-2.11,2.6-5.36,3.17-8.87,3.57.27,9.7-5.54,14.48-14.06,17.2V59.74c2.44-1.24,4.73-2.32,6.93-3.57a4.18,4.18,0,0,0,2.15-4.83,26.73,26.73,0,0,0-3-9.26,4.82,4.82,0,0,1-.06-5.38,18.87,18.87,0,0,1,1.34-2.12c.82-1.08,1.49-1,2.2.14S15.55,37,16.16,38.2c.15.29.27.58.42.87,1.83,3.64,5.26,4.2,8.28,1.32a12.79,12.79,0,0,0,3.14-6c.37-1.25,2.8-2.06,3.77-1.16A1.82,1.82,0,0,1,32,34.68c-.19,1.22-.57,2.41-.74,3.63a2.39,2.39,0,0,0,.33,1.63,8.47,8.47,0,0,0,5.83,3.18c1.3.17,2-.53,2.12-1.85a7.88,7.88,0,0,0-1.26-4.66,2.34,2.34,0,0,1,0-2.58,41,41,0,0,1,2.56-3.45c.54-.66,1.15-.53,1.43.31,1.72,5.2,2.38,10.42.11,15.65-1.94,4.47-4.3,5.56-8.84,3.82A59.17,59.17,0,0,1,27.72,47.36Z"/><path d="M51.77,63.07l-.18.35c-.77,1.06-1.5,2.16-2.33,3.18-3.71,4.61-8.41,6-14,4a40.41,40.41,0,0,1-5.64-2.58,3.78,3.78,0,0,1-1.53-4.51c.26-.72.77-.74,1.34-.47.87.41,1.72.86,2.57,1.29a8.07,8.07,0,0,0,7.06.14,22.39,22.39,0,0,0,10.82-9.94,4.59,4.59,0,0,0,.17-4.69c-1.3-2.37-2.64-4.73-4.12-7a4.18,4.18,0,0,1-.88-3.67c.48-1.63.87-3.31,1.49-4.89.53-1.34,1.28-1.41,2.22-.33a25.78,25.78,0,0,1,6.12,13,24.12,24.12,0,0,1-2.48,14.62C52.18,62.13,52,62.6,51.77,63.07Z"/><path d="M122.26,4.5c-.74,3.36-1.45,6.59-2.17,9.81q-5.37,24-10.73,47.94a3.2,3.2,0,0,1-4.4,2.13c-.87-.41-.76-1.1-.59-1.83q1.65-7.17,3.28-14.33,4.81-21.33,9.6-42.68c.19-.86.5-1.1,1.32-1.06C119.76,4.55,121,4.5,122.26,4.5Z"/><path d="M63.78,37.48a52.68,52.68,0,0,1-1.67,14.58,1.62,1.62,0,0,1-1.78,1.39c-1.11,0-1.57-.47-1.59-1.59,0-3-.07-6.08-.26-9.11-.3-5-.74-10-1.08-14.94-.35-5.14-.69-10.29-.94-15.44a4.19,4.19,0,0,1,.6-2.38A55.08,55.08,0,0,1,60.6,5.32c.28-.34.88-.41,1.33-.61A5.53,5.53,0,0,1,62.34,6c.39,7.42.81,14.84,1.12,22.27.13,3.07,0,6.15,0,9.23Z"/><path d="M110.9,4.91a10.18,10.18,0,0,1-1.6,1c-5.31,2.25-10.66,4.41-16,6.69-1.93.83-3.76,1.92-5.63,2.88-.45.23-.92.43-1.4.65-.36-1.57.87-4.74,2.21-5.42C92.64,8.67,96.81,6.68,101,4.67a1.48,1.48,0,0,1,.57-.16h9.18Z"/><path d="M34,15.2A5.16,5.16,0,1,1,28.85,10,5.15,5.15,0,0,1,34,15.2Z"/><path d="M23.6,19.38a5.16,5.16,0,1,1-5.18,5.17A5.16,5.16,0,0,1,23.6,19.38Z"/><path d="M39.53,24.58a5.16,5.16,0,1,1-5.14-5.2A5.15,5.15,0,0,1,39.53,24.58Z"/><path d="M79.13,24.59A5.16,5.16,0,1,1,74,19.38,5.15,5.15,0,0,1,79.13,24.59Z"/><path d="M145.68,29.69a5.16,5.16,0,1,1,5.21-5.12A5.15,5.15,0,0,1,145.68,29.69Z"/><path d="M134.43,69.77a5.16,5.16,0,1,1,5.18-5.16A5.16,5.16,0,0,1,134.43,69.77Z"/></g></g></svg>