<svg xmlns="http://www.w3.org/2000/svg" viewBox="0 0 154.4 75.93"><g id="Layer_2" data-name="Layer 2"><g id="Layer_1-2" data-name="Layer 1"><path d="M0,75.93V0H154.4V75.93ZM150.42,4H4.06V71.91H150.42Z"/><path d="M104.9,63a7.2,7.2,0,0,0,5.07,0,20,20,0,0,0,13.53-13c0-.07,0-.16,0-.34-1.32-.09-2.65-.16-4-.29-6.17-.58-9.53-4.31-9.35-10.5A18.93,18.93,0,0,1,114.51,27a11.33,11.33,0,0,1,1.73-1.66c2.87-2.3,5.82-2,8.25.74a18.47,18.47,0,0,1,3.82,8.53c.38,1.71.57,3.46.87,5.31,4.59,0,9.21.27,13.65-1.5,1-.4,1.37-1,.95-2-1-2.34-1.81-4.76-2.94-7a4.71,4.71,0,0,1-.3-4.45,27.41,27.41,0,0,1,2.07-3.61c.66-1,1.32-.87,2,.12A30,30,0,0,1,149,34a22.25,22.25,0,0,1-1.12,9.78,4.91,4.91,0,0,1-2.43,3,24.81,24.81,0,0,1-10.91,2.89c-1.63.08-3.28.06-4.92,0-.83,0-1.15.2-1.31,1.09a30.8,30.8,0,0,1-6.24,14.44c-4.28,5.23-8.86,6.39-15.64,4-1.57-.56-3.06-1.36-4.47-2a27.42,27.42,0,0,1-4.8,2.56c-3,1-6,.09-8.84-1.11a1.87,1.87,0,0,0-2,.11C82.75,71,79,70.47,75.26,69.15c-1.71-.6-3.32-1.5-5.06-2.31-.12.12-.34.29-.53.49a10,10,0,0,1-10.08,2.9,22,22,0,0,1-7.79-3.58,4.58,4.58,0,0,1-1.26-5.08,1.21,1.21,0,0,1,1.11-.39,7.73,7.73,0,0,1,1.78,1,8.13,8.13,0,0,0,9,.11,24.35,24.35,0,0,0,9.8-10.71,5.35,5.35,0,0,0,.17-4.86,74.3,74.3,0,0,0-3.9-7.52,6.45,6.45,0,0,1-1-5.63c.44-1.45.74-2.94,1.27-4.35.61-1.59,1.34-1.67,2.37-.34a30.53,30.53,0,0,1,5.53,11.83c1.75,7.34.4,14.25-2.93,20.88l-.72,1.38a21.77,21.77,0,0,0,3.48.42,14,14,0,0,0,7.46-3,19.24,19.24,0,0,0,7.67-10.13,14.77,14.77,0,0,0,.2-3.14c-.57.34-.82.41-.93.58-2.57,3.61-8.69,2.46-11-1.14a9.91,9.91,0,0,1-1.66-5.66,19.16,19.16,0,0,1,4.37-12.52c3.54-4.18,7.65-4,10.81.5a21.31,21.31,0,0,1,3.46,10.33A39.31,39.31,0,0,1,92,62.94c1-.43,1.76-.69,2.46-1.08a24.3,24.3,0,0,0,9.94-10.74,5.43,5.43,0,0,0,.17-5,73.32,73.32,0,0,0-3.91-7.52,6.31,6.31,0,0,1-1-5.52c.43-1.45.73-2.95,1.26-4.35.64-1.67,1.35-1.75,2.43-.35a30.64,30.64,0,0,1,5.73,12.89c1.41,7.18-.09,13.87-3.43,20.24C105.46,62,105.2,62.46,104.9,63ZM87.65,41.69a24.35,24.35,0,0,0,2.56-1,1.14,1.14,0,0,0,.41-1,7.91,7.91,0,0,0-2.57-4.61,3,3,0,0,0-4.35.58c-1.2,1.44-1.17,3.12.32,4.19A22.47,22.47,0,0,0,87.65,41.69ZM123,40c-.12-.78-.14-1.18-.24-1.55a8.26,8.26,0,0,0-2.64-4.72,2.88,2.88,0,0,0-3.26-.33,3.36,3.36,0,0,0-2.06,3A2.56,2.56,0,0,0,117,38.82C118.9,39.3,120.9,39.56,123,40Z"/><path d="M52.23,26.88c2.27,1.3,4.36,2.54,6.49,3.73a16.69,16.69,0,0,1,8.77,12.72,16,16,0,0,1-2.33,11.48c-1.49,2.29-4,3.51-6.59,4.33a20.78,20.78,0,0,1-8.07.79c-4.06-.35-7-3-8-7.56a87.09,87.09,0,0,1-1.22-10q-1-11.32-2-22.67a4,4,0,0,1,.51-2.36,42,42,0,0,1,3.32-4.23c.29-.34.87-.44,1.31-.66A4.55,4.55,0,0,1,45,13.84c.35,4.38.66,8.76,1,13.14,0,.31,0,.62.08,1.28.35-1.44.67-2.54.89-3.66A6.49,6.49,0,0,1,50.27,20c4.2-2.29,8.36-4.69,12.66-6.77C67.56,11,72.34,9,77.06,7c.4-.17,1.06-.33,1.3-.13a1.54,1.54,0,0,1,.24,1.3c-.71,2.4-1.41,4.81-2.32,7.14a3.8,3.8,0,0,1-1.92,1.63c-7,3.15-14,6.24-21,9.35C53.05,26.43,52.74,26.61,52.23,26.88Zm-5.86,7.36c.14,3.17.25,6,.4,8.83a19.82,19.82,0,0,0,.23,2c.56,3.69,2.46,5.3,6.2,5.17a27.69,27.69,0,0,0,4.16-.44,7.18,7.18,0,0,0,5.31-3.69c.43-.8.49-1.49-.11-2.06a22.09,22.09,0,0,0-3.9-3.3C54.72,38.53,50.65,36.5,46.37,34.24Z"/><path d="M21.54,54.23A15.5,15.5,0,0,0,33.41,48a2.83,2.83,0,0,0,.5-2.35A32.52,32.52,0,0,0,29.8,34.36a4,4,0,0,1-.37-3.67,25.46,25.46,0,0,1,1.87-3.86c1.14-1.8,2.18-1.75,3.07.18a62.17,62.17,0,0,1,3.12,7.62,29.8,29.8,0,0,1,.67,16.17,16.13,16.13,0,0,1-7.64,10.27A20.65,20.65,0,0,1,16,64c-5.32-.84-9.17-4.76-10.34-10.31C4.48,47.85,5.81,42.42,8,37.1q.2-.49.42-1c.86-2,2.18-2.62,4.22-2.06.88.24.78.84.55,1.52a35.87,35.87,0,0,0-1.78,5.68,19.47,19.47,0,0,0-.07,6.28C12.16,51.94,15.6,54.27,21.54,54.23Z"/><path d="M48.91,18.51c.55-2.73,1.05-5.41,4-6.86C57,9.61,61,7.41,65.08,5.29A2.16,2.16,0,0,1,66,5c2.66,0,5.33,0,8.08,0a3.45,3.45,0,0,1-2,2.44q-8.83,4.08-17.61,8.34c-1.46.71-2.8,1.68-4.2,2.52-.35.2-.73.35-1.1.52Z"/><path d="M97.87,15.77a5.16,5.16,0,1,1,5.26-5.07A5.15,5.15,0,0,1,97.87,15.77Z"/><path d="M26.57,21.21A5.16,5.16,0,1,1,21.43,16,5.15,5.15,0,0,1,26.57,21.21Z"/><path d="M134.94,15.77a5.16,5.16,0,1,1,5.15-5.18A5.16,5.16,0,0,1,134.94,15.77Z"/></g></g></svg>