<svg xmlns="http://www.w3.org/2000/svg" viewBox="0 0 101.85 75.95"><g id="Layer_2" data-name="Layer 2"><g id="Layer_1-2" data-name="Layer 1"><path d="M0,0H101.85V76H0ZM4,72H97.8V4.05H4Z"/><path d="M79.89,29A9.39,9.39,0,0,1,80,30.26c-.09,1.64-.21,3.28-.35,4.91-.3,3.71,2,6.17,5.68,6.09a14.23,14.23,0,0,0,6.58-1.56,1.36,1.36,0,0,0,.79-1.54,43.84,43.84,0,0,0-2.83-12.58,4.6,4.6,0,0,1-.2-2.44,12.24,12.24,0,0,1,2.59-6.09,13.58,13.58,0,0,1,1.13,2c3.09,8.54,4.48,17.22,2.32,26.23a6,6,0,0,1-2.62,3.84A14.78,14.78,0,0,1,84,51.6c-2.51-.15-4-1.76-5.16-3.79-.35-.62-.61-1.29-1-2.08-.5,1.42-.88,2.73-1.4,4C75,53.17,72.6,53.6,70.09,50.78A42.32,42.32,0,0,1,67.35,47a24.35,24.35,0,0,1-3.07,3.19A15.63,15.63,0,0,1,60,52.38a3.28,3.28,0,0,1-4.29-1.7,31.54,31.54,0,0,1-1.74-4.8,5.55,5.55,0,0,1-.19-.86c-2.33,1-4.59,2-6.81,3-.27.13-.41.72-.45,1.11-.54,5.53-1.68,10.91-4.4,15.81a21,21,0,0,1-3.61,4.57,5.4,5.4,0,0,1-6,1.06,17.07,17.07,0,0,1-6-3.84c-1-.95-1.49-4.12-.93-5.34.28-.6.68-.62,1.15-.25.63.49,1.26,1,1.87,1.5a4.14,4.14,0,0,0,4.81.5,13,13,0,0,0,3-1.95,22.6,22.6,0,0,0,6.33-9.88c.24-.73.27-1.27-.49-1.72A2.35,2.35,0,0,1,41,47.05c.34-2.29.62-4.58,1-6.87a2.08,2.08,0,0,1,1.65-1.8A52.91,52.91,0,0,0,56,33,1.32,1.32,0,0,1,58,34.16a4.76,4.76,0,0,1-.3,1.88c-.7,1.66-.23,3.22.31,4.76a2.14,2.14,0,0,0,2.43,1.5,6,6,0,0,0,5.29-3.59,41.58,41.58,0,0,0,2.07-6.34c.34-1.17.64-1.38,2.12-1.29,1.17.08,1.11.85,1,1.62-.15,1.43-.32,2.86-.55,4.28a5.83,5.83,0,0,0,2.76,5.3c1,.48,1.71.19,2-.78a35,35,0,0,0,1-4.53c.25-1.54.3-3.11.46-4.65C76.86,30.53,77.84,29.51,79.89,29Z"/><path d="M19.09,40.18c-.71,1.41-1.33,2.74-2,4a2.66,2.66,0,0,1-2.78,1.45,13.47,13.47,0,0,1-5.74-1.48A6.41,6.41,0,0,1,5.14,37,44.17,44.17,0,0,1,8,28.29c.87-1.83,2.57-3.32,4.08-4.77a51.74,51.74,0,0,1,4.75-3.84,1.73,1.73,0,0,0,.82-1.8c-.44-3,1.17-5.29,2.62-7.63A4.09,4.09,0,0,1,21,9.63a6.12,6.12,0,0,1,.29,1.08C21.84,18.48,22.36,26.26,23,34a22,22,0,0,0,1,4.66,3.5,3.5,0,0,0,3,2.46,13.29,13.29,0,0,0,8-1.45,1.43,1.43,0,0,0,.85-1.85c-.75-2.56-1.31-5.19-2.28-7.66-1.32-3.37-.09-6.17,1.5-8.95.52-.91,1-.24,1.26.34a57.68,57.68,0,0,1,2,5.74,34.39,34.39,0,0,1,1.38,12.91c-.22,1.82-.61,3.62-1,5.43a4.77,4.77,0,0,1-2.07,3.1,14.84,14.84,0,0,1-10.89,2.7A5.59,5.59,0,0,1,21.29,48a63,63,0,0,1-1.94-6.26A12.8,12.8,0,0,1,19.09,40.18ZM18.13,25c-1.19,1.1-2.36,2.16-3.51,3.24-1.36,1.28-2.72,2.57-4.06,3.88-.52.51-.44,1,.08,1.54a6.33,6.33,0,0,0,5.84,1.75,2.4,2.4,0,0,0,2.08-2.82C18.41,30,18.27,27.46,18.13,25Z"/><path d="M58.63,6.43a5.16,5.16,0,1,1-5.19,5.16A5.17,5.17,0,0,1,58.63,6.43Z"/><path d="M84.63,14.24a5.16,5.16,0,1,1-5.17-5.17A5.16,5.16,0,0,1,84.63,14.24Z"/><path d="M58.47,21a5.16,5.16,0,1,1-5.15-5.19A5.15,5.15,0,0,1,58.47,21Z"/><path d="M63.93,15.8a5.16,5.16,0,1,1-5.21,5.13A5.16,5.16,0,0,1,63.93,15.8Z"/><path d="M59.67,66.16a5.16,5.16,0,1,1-5.11-5.23A5.17,5.17,0,0,1,59.67,66.16Z"/><path d="M70.23,66.2a5.16,5.16,0,1,1-5.07-5.27A5.17,5.17,0,0,1,70.23,66.2Z"/></g></g></svg>