<svg xmlns="http://www.w3.org/2000/svg" viewBox="0 0 119.71 75.8"><g id="Layer_2" data-name="Layer 2"><g id="Layer_1-2" data-name="Layer 1"><path d="M119.71,75.8H0V0H119.71Zm-4-4V4H4.07V71.77Z"/><path d="M93.87,55.06c-1,2.65-1.94,5.37-3.14,7.95a17.39,17.39,0,0,1-4.87,6.15,9.93,9.93,0,0,1-9.33,2,33.13,33.13,0,0,1-6.4-2.59c-2.65-1.37-3.14-2.81-2.44-5.75,0-.11,0-.23,0-.09-2.64-.59-5.3-1.06-7.88-1.8a20.17,20.17,0,0,1-4.08-2,4.09,4.09,0,0,1-1.27-4.58,1.31,1.31,0,0,1,1.17-.3,12.21,12.21,0,0,1,2.15,1.05,9,9,0,0,0,7.42.53,20.59,20.59,0,0,0,11.07-8.52c1.76-2.67,1.32-5.56,1.24-8.44a.74.74,0,0,0-.18-.37,16.42,16.42,0,0,1-3.65,2A7.75,7.75,0,0,1,64,32.89,15.47,15.47,0,0,1,68.66,21c3.47-3.44,7.47-3.17,10.49.68,2.62,3.34,3.49,7.29,3.69,11.41.09,1.67-.28,3.37-.1,5a25.3,25.3,0,0,1-1.33,10.08,23.84,23.84,0,0,1-6,10.45,12.76,12.76,0,0,1-7,3.67c1,.57,2,1.09,2.91,1.67a6.82,6.82,0,0,0,6.43.53A22.07,22.07,0,0,0,89.16,54.11c.8-1.46.76-3.39,1-5.11,0-.31-.31-.71-.52-1q-2.35-3.54-4.72-7.06a5.11,5.11,0,0,1-.46-5.33,31.12,31.12,0,0,1,2.13-4c.76-1.13,1.48-1,2.12.24,1,1.9,1.91,3.86,3,5.67a8.15,8.15,0,0,0,7.12,3.92,26.24,26.24,0,0,0,9.44-1.23c1.49-.52,1.66-.66,1.08-2.14a36.31,36.31,0,0,0-2.75-5.81,4.14,4.14,0,0,1-.22-4.59A17.32,17.32,0,0,1,108.23,25c.85-1,1.5-1,2.3.13a26.22,26.22,0,0,1,4,9.15,17.54,17.54,0,0,1-.74,10.55,4.76,4.76,0,0,1-2.59,2.83,27.42,27.42,0,0,1-13.49,2.52,15.58,15.58,0,0,1-3.37-1c-.17,1.93-.34,4-.51,6Zm-20.19-22c.82-.28,1.58-.5,2.29-.82a.85.85,0,0,0,.4-.72,6.57,6.57,0,0,0-3.06-4.5A3.28,3.28,0,0,0,69,28.61c-.68,1.36-.17,2.61,1.57,3.44A24.9,24.9,0,0,0,73.68,33.1Z"/><path d="M36.12,30.82a4.66,4.66,0,0,1,.15,1c-.07,1.32-.14,2.64-.29,3.94a4.49,4.49,0,0,0,3.39,5A10.51,10.51,0,0,0,45,40.16c-1.88-5.3-.14-9.81,3.15-13.93-.49-.29-1.18-.48-1.37-.89a2.92,2.92,0,0,1,.1-1.74c.54-2.08,1.08-4.17,1.72-6.22.35-1.11,1-1.36,1.91-.65,7.57,6,13.41,13.08,13.59,23.35a12.46,12.46,0,0,1-2.92,8.07A3,3,0,0,1,58,49.33,21,21,0,0,1,50.45,46a22.51,22.51,0,0,1-3.57,2.12,27,27,0,0,1-5.7,1.58c-2.81.43-4.68-1.13-6-3.48-.22-.41-.42-.83-.7-1.36-.53,1.33-.93,2.58-1.5,3.74-1.27,2.58-3,2.9-5.08.91a29.26,29.26,0,0,1-2.39-2.84,19,19,0,0,1-2.68,2.44,20.93,20.93,0,0,1-3.6,1.42c-.2,1.74-.3,3.68-.64,5.59A14.61,14.61,0,0,1,7.28,68a24.72,24.72,0,0,1-2.7.23V59.18A11.08,11.08,0,0,0,14,55.75a5.12,5.12,0,0,0,1.68-4.49,39,39,0,0,0-2.33-10.35c-1.1-2.76.11-5.08,1.36-7.35.46-.85,1-.16,1.19.34.57,1.4,1.05,2.84,1.58,4.26.28.75.54,1.5.87,2.23a1.88,1.88,0,0,0,2.46,1.1A4.12,4.12,0,0,0,23.66,39a47.89,47.89,0,0,0,1.68-5.21c.32-1.14.72-1.44,2-1.28,1.1.13.92.93.86,1.62a29.77,29.77,0,0,1-.38,3,4.59,4.59,0,0,0,1.71,4.47c1.21,1.11,2.29.83,2.64-.77.48-2.26.75-4.56,1.06-6.85A3.31,3.31,0,0,1,36.12,30.82Zm17.86,2c-.31-.84-.67-2-1.14-3.05a1.3,1.3,0,0,0-1.73-.66c-1.5.42-3.21,2.72-3.42,4.6-.13,1.22,1.21,3.15,2.7,3.82a1,1,0,0,0,.84,0A6.26,6.26,0,0,0,54,32.85Zm1.87,7.52a21.17,21.17,0,0,0,3.42.71c1.49.08,2.09-.77,1.54-2.11a45.34,45.34,0,0,0-2.26-4.45,12.38,12.38,0,0,0-1.18-1.59C56.89,35.29,56.4,37.67,55.85,40.37Z"/><path d="M31.81,10a5.15,5.15,0,1,1-5-5.26A5.1,5.1,0,0,1,31.81,10Z"/><path d="M89.12,9.84a5.15,5.15,0,0,1,10.3,0,5.15,5.15,0,0,1-10.3,0Z"/><path d="M26.54,19.22A5.15,5.15,0,1,1,21.42,14,5.09,5.09,0,0,1,26.54,19.22Z"/><path d="M27,19.19a5.15,5.15,0,1,1,5.14,5.14A5.09,5.09,0,0,1,27,19.19Z"/><path d="M94.15,19.3a5.15,5.15,0,1,1-5-5.26A5.1,5.1,0,0,1,94.15,19.3Z"/><path d="M99.69,24.33a5.15,5.15,0,1,1,5.24-5A5.08,5.08,0,0,1,99.69,24.33Z"/><path d="M39.48,56.09a5.15,5.15,0,1,1-5.14-5.15A5.08,5.08,0,0,1,39.48,56.09Z"/><path d="M50.27,56.09a5.15,5.15,0,1,1-5.15-5.15A5.09,5.09,0,0,1,50.27,56.09Z"/><path d="M93.84,55.09l.61-1.1a5.17,5.17,0,1,1,4,7.46,5.13,5.13,0,0,1-4.48-5.09c0-.44,0-.87,0-1.3Z"/><path d="M115,56.37a5.15,5.15,0,1,1-5.09-5.19A5.08,5.08,0,0,1,115,56.37Z"/><path d="M44.76,65.49a5.15,5.15,0,1,1-5.09-5.21A5.11,5.11,0,0,1,44.76,65.49Z"/><path d="M104.42,60.52a5.15,5.15,0,1,1-5.23,5.07A5.1,5.1,0,0,1,104.42,60.52Z"/></g></g></svg>