<svg xmlns="http://www.w3.org/2000/svg" viewBox="0 0 133.78 80.77"><g id="Layer_2" data-name="Layer 2"><g id="Layer_1-2" data-name="Layer 1"><path d="M0,80.77V0H133.78V80.77Zm129.78-4V4.07H4.05V76.76H113.64a10.06,10.06,0,0,1-1-.53c-3.9-2.64-3.59-4.3-1.61-7.18a18.74,18.74,0,0,1,1.38-1.56c-5.66-.75-8.39-3.58-9.2-9.56-.58-4.27-.84-8.58-1.1-12.88-.49-8.1-.87-16.21-1.3-24.32a33.07,33.07,0,0,1-.29-5.6c.46-3.76,2.4-7,4.25-10.21a5.32,5.32,0,0,1,.89-.85A13.49,13.49,0,0,1,106.21,6a31.73,31.73,0,0,1,.27,3.23c.34,10,.64,19.91,1,29.87.18,4.71.39,9.42.74,14.13.22,2.92,1.77,4.74,4.17,5a23.1,23.1,0,0,0,10.5-1.36c.83-.31,1.16-.79.78-1.64-1-2.28-1.94-4.61-3.07-6.84-.51-1-1-2-.5-3.06a26.39,26.39,0,0,1,2.31-4.16c.69-1,1.38-.91,2.07.14,3.24,4.95,5,10.31,4.36,16.31-.44,4.42-2.36,7.55-7,8.47-2.52.5-5,1-7.46,1.56.52.38,1.22.82,1.84,1.35,1.84,1.57,2.09,2.82.88,4.94A30.92,30.92,0,0,1,115,76.77Z"/><path d="M29.9,52.12c0,.78,0,1.5,0,2.21.05,4.79,2.51,6.71,7.22,5.81,4.25-.81,6.61-3.47,7.59-7.5.36-1.48,1-1.65,2.47-1.4A.91.91,0,0,1,48,52.51c-.37,1.6-.74,3.19-1.12,4.78-.42,1.74.07,2.37,1.82,2.23a6.25,6.25,0,0,0,5.75-4c.55-1.37.89-2.81,1.32-4.22.28-1,1-1.29,2.26-1.1s.93.91.83,1.63a33.11,33.11,0,0,1-.55,3.31A2.41,2.41,0,0,0,59,57.77a17.16,17.16,0,0,0,3.52,2.38c1.29.59,2.21,0,2.22-1.4a11.92,11.92,0,0,0-.76-4.4,4.31,4.31,0,0,1,.35-4.09c.46-.8.93-1.59,1.46-2.34s1-.71,1.26.19c1.63,5.63,1.93,11.26-.28,16.81-1.52,3.82-3.34,4.51-7,2.62a44.82,44.82,0,0,1-4.59-3.12c-2.07,2.7-5.14,3.73-8.56,3.93-2.4.13-3-.31-3.84-2.56-3,3-6.69,3.64-10.7,3.11a6.5,6.5,0,0,1-5.75-5.21A37,37,0,0,1,4.82,71.52V62.9c3-.5,6-.82,9-1.54a27.6,27.6,0,0,0,11.82-6,15.4,15.4,0,0,0,2.31-2.59A1.47,1.47,0,0,1,29.9,52.12Z"/><path d="M75.49,29.79c.11-1.59.23-3.18.33-4.78.06-1,.63-1.34,1.59-1.31S79,23.78,79.14,25c.13,1.61,1.06,2.46,2.92,2.81a24.56,24.56,0,0,0,9.28-.35c1.33-.27,2.62-.68,3.93-1,.82-.22,1-.72.81-1.54-.84-3.51-2.94-6.26-5.32-8.83-1.66-1.8-3.45-3.45-6-3.89-.93-.16-1.24-.73-.87-1.66.56-1.37,1-2.79,1.62-4.12,1.14-2.4,2.67-2.75,4.78-1.09A27.16,27.16,0,0,1,98.9,17a20.4,20.4,0,0,1,1.36,11.72,13.44,13.44,0,0,1-1,3.18,3.74,3.74,0,0,1-1.66,1.76C92,35.89,86.3,37.24,80.27,36.46c-3.62-.46-4.66-1.7-4.72-5.34,0-.44,0-.88,0-1.32Z"/><path d="M102.52,58.75A14.44,14.44,0,0,1,101,65.56a3.4,3.4,0,0,1-1.69,1.57c-5.61,2.18-11.36,3.5-17.43,2.69-3.11-.42-4.39-1.79-4.4-4.91,0-2.2.16-4.4.26-6.59,0-1.08.74-1.26,1.65-1.25s1.61.1,1.64,1.24a2.52,2.52,0,0,0,2.21,2.61,26.23,26.23,0,0,0,6,.42,67.42,67.42,0,0,0,7.51-1.4c1.08-.23,1.46-.81,1.13-2a20.68,20.68,0,0,0-5.06-8.31c-1.73-1.91-3.59-3.66-6.29-4.12-.89-.16-1.15-.73-.81-1.6.56-1.4,1-2.86,1.67-4.22,1.11-2.34,2.62-2.66,4.71-1.06a26.39,26.39,0,0,1,7.24,8.68A24.48,24.48,0,0,1,102.52,58.75Z"/><path d="M74.42,30.31c.13,7.67.5,15.36.32,23-.12,5-1,10-1.63,15-.12,1-.51,1.77-1.75,1.72-.92,0-1.45-.44-1.51-1.35s0-1.76-.06-2.63C69.5,58.5,69.23,51,68.88,43.4c-.29-6.31-.69-12.62-1-18.92-.15-2.88-.22-5.76-.38-8.63a9.51,9.51,0,0,1,1.24-5.53c1-1.65,1.93-3.31,3-4.92.24-.37.8-.54,1.22-.8A4.92,4.92,0,0,1,73.38,6q.44,12.17.81,24.34Z"/><path d="M126.62,71.39a7.91,7.91,0,0,1-3,4.64,1.29,1.29,0,0,1-.44.16c-1.58.38-5.63-2.72-4.8-4.88a16.62,16.62,0,0,1,2-3.61,2,2,0,0,1,2.59-.54C124.77,67.91,126.59,69.89,126.62,71.39Z"/><path d="M13.69,44a6.51,6.51,0,0,1-3.13,4.2c-1.21.79-2.36.29-3.45-.4-.33-.21-.66-.44-1-.67-2.24-1.6-2.39-2.8-.58-4.92a4.63,4.63,0,0,1,7.83.88A6.49,6.49,0,0,1,13.69,44Z"/><path d="M8.56,31.51a6.93,6.93,0,0,1,4.66,2.9,1.34,1.34,0,0,1,.26.9c-.23,1.86-1.48,3-2.89,4a2.82,2.82,0,0,1-3.36-.16A21.6,21.6,0,0,1,5,37.58a2,2,0,0,1-.51-2.69A6,6,0,0,1,8.56,31.51Z"/><path d="M60.43,44.5a7.82,7.82,0,0,1-3,4.7.72.72,0,0,1-.32.15c-1.62.18-2.73-.76-3.75-1.78-.86-.86-1.61-1.82-1.13-3.19a6,6,0,0,1,.37-1c.75-1.31,1.32-3,3.08-3,2,0,3.3,1.44,4.37,3A5.18,5.18,0,0,1,60.43,44.5Z"/><path d="M51.6,45.12a7.43,7.43,0,0,1-2.93,4.58,1,1,0,0,1-.56.16c-1.93,0-3.11-1.26-4.19-2.63a2.9,2.9,0,0,1-.09-3.36,5.58,5.58,0,0,1,.35-.63c.77-1.13,1.38-2.72,3.07-2.41a6,6,0,0,1,4.21,3.42A3.06,3.06,0,0,1,51.6,45.12Z"/><path d="M51.67,40.73c-3.13.1-5.6-3.73-4.33-6.2,1.78-3.48,3.67-3.78,6.47-1,1.46,1.43,1.63,2.48.6,4.27a13.38,13.38,0,0,1-1.52,2.14A5.39,5.39,0,0,1,51.67,40.73Z"/></g></g></svg>